<svg width="135" height="36" viewBox="0 0 135 36" fill="none" xmlns="http://www.w3.org/2000/svg">
<g clip-path="url(#clip0_293_5456)">
<path d="M6.82332 0.860535L0.0268555 16.6731H4.44995L5.70406 13.5052H12.9995L14.2536 16.6731H18.7846L11.9881 0.860535H6.82332ZM9.34502 4.52722L11.5701 10.0542H7.11999L9.34502 4.52722Z" fill="#002663"/>
<path d="M19.2432 16.6594V0.846802L25.5407 0.873764L29.1951 11.065L32.7687 0.846802H39.0122V16.6594H35.0611V5.01226L30.8673 16.6594H27.4016L23.1943 5.01226V16.6594H19.2432Z" fill="#002663"/>
<path d="M41.7227 16.6594V0.846802H54.6278V4.37869H45.7277V7.08826H54.4121V10.4179H45.7142V13.2219H54.6144V16.6594H41.7227Z" fill="#002663"/>
<path d="M56.9069 0.860321V16.6729H60.858V11.0515H62.5166L67.2634 16.6729H72.091L66.8858 10.8493C69.0164 10.6741 71.228 8.84075 71.228 5.99638C71.228 2.66671 68.6119 0.873798 65.6991 0.873798L56.9069 0.860321ZM60.858 4.3922H65.3755C66.4543 4.3922 67.2499 5.24146 67.2499 6.05028C67.2499 7.10176 66.225 7.70839 65.4294 7.70839H60.858V4.3922Z" fill="#002663"/>
<path d="M76.8782 16.6594H72.8462V0.846802H76.8782V16.6594Z" fill="#002663"/>
<path d="M86.4524 16.6594H85.5759C81.3551 16.6594 78.8064 13.3432 78.8064 8.82727C78.8064 4.20348 81.3416 0.860321 86.6547 0.860321H91.0238V4.60788H86.5064C84.3487 4.60788 82.8114 6.29294 82.8114 8.8677C82.8114 11.9278 84.5645 13.2084 87.0727 13.2084H88.1111L86.4524 16.6594Z" fill="#002663"/>
<path d="M95.056 0.860287L88.2595 16.6594H92.6826L93.9367 13.4915H101.232L102.486 16.6594H107.004L100.207 0.846802L95.056 0.860287ZM97.5642 4.52697L99.7892 10.054H95.3392L97.5642 4.52697Z" fill="#002663"/>
<path d="M107.462 16.6594V0.846802H112.492L118.911 10.7819V0.846802H122.862V16.6594H117.994L111.413 6.46816V16.6594H107.462Z" fill="#002663"/>
<path d="M28.8176 35.1545V19.342H41.7228V22.8739H32.8227V25.5834H41.5205V28.9131H32.8227V31.717H41.7228V35.1545H28.8176Z" fill="#002663"/>
<path d="M92.022 35.1545V19.342H104.927V22.8739H96.027V25.5834H104.684V28.9131H96.027V31.717H104.927V35.1545H92.022Z" fill="#002663"/>
<path d="M42.2218 35.1545L48.5059 27.3494L42.0735 19.342H47.0495L50.8792 24.2893L54.7225 19.342H59.5096L53.1582 27.2415L59.4557 35.1411H54.4797L50.7579 30.2746L47.1304 35.1411L42.2218 35.1545Z" fill="#002663"/>
<path d="M59.9275 19.3555V35.168H63.9865V30.1803H68.1534C71.673 30.1803 74.343 28.3065 74.343 24.6802C74.343 21.6741 72.2528 19.3689 68.6658 19.3689H59.9275V19.3555ZM63.9865 22.9278H68.3691C69.5019 22.9278 70.3245 23.6288 70.3245 24.7476C70.3245 25.7991 69.5154 26.5675 68.3556 26.5675H63.9865V22.9278Z" fill="#002663"/>
<path d="M76.0421 19.342V35.1545H79.9932V29.5332H81.6519L86.3986 35.1545H91.2263L86.021 29.331C88.1517 29.1557 90.3632 27.3224 90.3632 24.478C90.3632 21.1484 87.7471 19.3555 84.8344 19.3555L76.0421 19.342ZM80.0067 22.8873H84.5242C85.603 22.8873 86.3986 23.7366 86.3986 24.5454C86.3986 25.5969 85.3738 26.2035 84.5781 26.2035H80.0067V22.8873Z" fill="#002663"/>
<path d="M106.761 35.1545V31.717H114.677C115.85 31.717 116.349 31.0835 116.349 30.396C116.349 29.7354 115.85 29.0614 114.677 29.0614H111.103C108.002 29.0614 106.262 27.1741 106.262 24.3298C106.262 21.7954 107.853 19.3555 112.465 19.3555H120.165L118.507 22.9143H111.845C110.577 22.9143 110.186 23.5883 110.186 24.2219C110.186 24.8824 110.672 25.5969 111.643 25.5969H115.392C118.857 25.5969 120.354 27.5651 120.354 30.1398C120.354 32.9033 118.682 35.168 115.203 35.168H106.761V35.1545Z" fill="#002663"/>
<path d="M121.271 35.1545V31.717H129.187C130.36 31.717 130.859 31.0835 130.859 30.396C130.859 29.7354 130.36 29.0614 129.187 29.0614H125.613C122.512 29.0614 120.772 27.1741 120.772 24.3298C120.772 21.7954 122.363 19.3555 126.975 19.3555H134.675L133.017 22.9143H126.355C125.087 22.9143 124.696 23.5883 124.696 24.2219C124.696 24.8824 125.182 25.5969 126.153 25.5969H129.902C133.367 25.5969 134.864 27.5651 134.864 30.1398C134.864 32.9033 133.192 35.168 129.713 35.168H121.271V35.1545Z" fill="#002663"/>
</g>
<defs>
<clipPath id="clip0_293_5456">
<rect width="134.985" height="34.3751" fill="white" transform="translate(0 0.812439)"/>
</clipPath>
</defs>
</svg>
