<svg width="162" height="35" viewBox="0 0 162 35" fill="none" xmlns="http://www.w3.org/2000/svg">
<g clip-path="url(#clip0_279_1049)">
<path d="M160.541 22.1061C160.636 22.1061 160.731 22.1061 160.827 22.1539C160.922 22.2016 160.97 22.2494 161.065 22.2971C161.113 22.3448 161.208 22.4403 161.208 22.5358C161.303 22.7268 161.303 22.9178 161.208 23.1087C161.16 23.2042 161.113 23.252 161.065 23.3475C161.017 23.3952 160.922 23.4429 160.827 23.4907C160.731 23.5384 160.636 23.5384 160.541 23.5384C160.255 23.5384 159.969 23.3475 159.874 23.1087C159.778 22.9178 159.778 22.7268 159.874 22.5358C159.969 22.3448 160.112 22.2016 160.255 22.1539C160.35 22.1539 160.445 22.1061 160.541 22.1061ZM160.541 23.3952C160.636 23.3952 160.684 23.3952 160.779 23.3475C160.827 23.2997 160.922 23.2997 160.97 23.2042C161.208 22.9655 161.208 22.6313 160.97 22.3926C160.922 22.3448 160.874 22.2971 160.779 22.2494C160.731 22.2016 160.636 22.2016 160.541 22.2016C160.445 22.2016 160.398 22.2016 160.302 22.2494C160.017 22.3926 159.874 22.7268 160.017 23.0133C160.064 23.061 160.064 23.1565 160.112 23.2042C160.16 23.252 160.207 23.2997 160.302 23.3475C160.398 23.3952 160.493 23.3952 160.541 23.3952ZM160.588 22.4881C160.636 22.4881 160.731 22.4881 160.779 22.5358C160.827 22.5836 160.874 22.6313 160.827 22.6791C160.827 22.7268 160.827 22.7745 160.779 22.8223C160.731 22.87 160.684 22.87 160.636 22.87L160.874 23.1087H160.684L160.493 22.87H160.445V23.1087H160.302V22.4403L160.588 22.4881ZM160.445 22.6313V22.8223H160.588C160.636 22.8223 160.636 22.8223 160.684 22.8223L160.731 22.7745C160.731 22.7268 160.731 22.7268 160.684 22.7268C160.636 22.7268 160.636 22.7268 160.588 22.7268H160.445V22.6313ZM85.3422 23.1565V15.995C85.3422 13.2736 83.6267 11.4594 80.8627 11.4594C79.2425 11.3639 77.7175 12.1278 76.8598 13.5123C76.0496 12.1755 74.62 11.4116 73.0951 11.4594C71.7608 11.4116 70.4741 12.0323 69.7593 13.1781V11.7458H67.2812V23.1565H69.8069V16.8544C69.8069 14.8492 70.903 13.7988 72.6185 13.7988C74.2864 13.7988 75.0966 14.8969 75.0966 16.8066V23.1565H77.6222V16.8544C77.6222 14.8492 78.7659 13.7988 80.4338 13.7988C82.1494 13.7988 82.9595 14.8969 82.9595 16.8066V23.1565H85.3422ZM99.3526 17.475V11.7458H96.8746V13.1304C96.0168 12.0323 94.6825 11.4116 93.2529 11.4594C90.06 11.4594 87.5343 13.9898 87.5343 17.475C87.5343 20.9603 90.06 23.4907 93.2529 23.4907C94.6348 23.5384 96.0168 22.9178 96.8746 21.8197V23.2042H99.3526V17.475ZM90.1077 17.475C90.1077 15.4698 91.442 13.7988 93.5864 13.7988C95.6356 13.7988 97.0175 15.3743 97.0175 17.475C97.0175 19.5757 95.6356 21.1513 93.5864 21.1513C91.3943 21.1035 90.1077 19.4803 90.1077 17.475ZM152.44 11.4594C153.297 11.4594 154.107 11.6026 154.87 11.9368C155.585 12.2233 156.252 12.653 156.824 13.1781C157.396 13.7033 157.824 14.3717 158.11 15.0879C158.73 16.6157 158.73 18.3344 158.11 19.8622C157.824 20.5783 157.396 21.2468 156.824 21.7719C156.252 22.2971 155.585 22.7268 154.87 23.0133C153.297 23.6339 151.534 23.6339 149.961 23.0133C149.247 22.7268 148.58 22.2971 148.008 21.7719C147.436 21.2468 147.007 20.5783 146.721 19.8622C146.101 18.3344 146.101 16.6157 146.721 15.0879C147.007 14.3717 147.436 13.7511 148.008 13.1781C148.58 12.653 149.247 12.2233 149.961 11.9368C150.772 11.6026 151.629 11.4116 152.44 11.4594ZM152.44 13.7988C151.963 13.7988 151.486 13.8943 151.01 14.0853C150.581 14.2762 150.2 14.515 149.866 14.8492C149.533 15.1834 149.294 15.5653 149.104 15.995C148.722 16.9499 148.722 18.0002 149.104 18.9551C149.294 19.3848 149.533 19.7667 149.866 20.1009C150.2 20.4351 150.581 20.6738 151.01 20.8648C151.915 21.2468 152.916 21.2468 153.821 20.8648C154.25 20.6738 154.632 20.4351 154.965 20.1009C155.299 19.7667 155.537 19.3848 155.728 18.9551C156.109 18.0002 156.109 16.9499 155.728 15.995C155.537 15.5653 155.299 15.1834 154.965 14.8492C154.632 14.515 154.25 14.2762 153.821 14.0853C153.44 13.8943 152.916 13.7988 152.44 13.7988ZM112.839 17.475C112.839 13.8943 110.599 11.4594 107.406 11.4594C104.07 11.4594 101.735 13.8943 101.735 17.475C101.735 21.1035 104.166 23.4907 107.597 23.4907C109.312 23.5384 110.98 22.9655 112.267 21.8674L111.028 20.0054C110.075 20.7693 108.931 21.199 107.692 21.199C106.072 21.199 104.642 20.4351 104.261 18.3822H112.791C112.839 18.0957 112.839 17.8092 112.839 17.475ZM104.356 16.4724C104.642 14.8014 105.643 13.7033 107.406 13.7033C109.026 13.7033 110.027 14.7059 110.313 16.4724H104.356ZM124.371 12.653C122.989 11.7936 121.369 11.4116 119.701 11.4594C116.794 11.4594 114.936 12.8439 114.936 15.1356C114.936 16.9976 116.318 18.1434 118.891 18.5254L120.082 18.7164C121.464 18.9073 122.084 19.2893 122.084 19.9099C122.084 20.8171 121.178 21.2945 119.463 21.2945C118.081 21.3422 116.746 20.9126 115.65 20.1009L114.459 22.0584C115.889 23.061 117.652 23.5862 119.415 23.5384C122.703 23.5384 124.609 21.9629 124.609 19.8145C124.609 17.8092 123.084 16.7589 120.606 16.3769L119.415 16.186C118.319 16.0427 117.461 15.804 117.461 15.0401C117.461 14.1808 118.271 13.7033 119.653 13.7033C120.892 13.7033 122.131 14.0375 123.227 14.7059L124.371 12.653ZM135.236 11.7458H131.186V8.26059H128.66V11.7458H126.325V14.0375H128.66V19.2415C128.66 21.9152 129.708 23.4907 132.615 23.4907C133.711 23.4907 134.807 23.2042 135.713 22.5836L134.998 20.4351C134.331 20.8171 133.568 21.0558 132.806 21.1035C131.567 21.1035 131.138 20.3396 131.138 19.1938V13.9898H135.189V11.7458H135.236ZM143.814 11.4594C142.575 11.4116 141.431 12.08 140.812 13.1304V11.7458H138.334V23.1565H140.812V16.7589C140.812 14.8492 141.622 13.7988 143.242 13.7988C143.766 13.7988 144.291 13.8943 144.815 14.0853L145.577 11.7458C145.005 11.5549 144.434 11.4594 143.814 11.4594Z" fill="black"/>
<path d="M35.5911 3.86829H20.58V30.891H35.5911V3.86829Z" fill="#7375CF"/>
<path d="M21.5329 17.3796C21.5329 12.1279 23.9633 7.11483 28.0615 3.86828C20.6275 -2.00414 9.85758 -0.715068 3.9961 6.78062C-1.86538 14.2286 -0.578711 25.0185 6.90302 30.891C13.1457 35.8085 21.8665 35.8085 28.1092 30.891C23.9633 27.6444 21.5329 22.6314 21.5329 17.3796Z" fill="#EB001B"/>
<path d="M54.2238 28.0263V27.4534H54.4621V27.3579H53.8903V27.4534H54.1285V28.0263H54.2238ZM55.3199 28.0263V27.3579H55.1293L54.9387 27.8354L54.748 27.3579H54.5574V28.0263H54.7004V27.5012L54.891 27.9309H55.034L55.2246 27.5012V28.0263H55.3199Z" fill="#00A2E5"/>
<path d="M55.8442 17.3797C55.8442 26.8806 48.1718 34.5673 38.6886 34.5673C34.8286 34.5673 31.1116 33.2782 28.1094 30.8911C35.5434 25.0186 36.8301 14.2287 30.9686 6.73297C30.1109 5.68262 29.1578 4.68001 28.1094 3.86838C35.5434 -2.00404 46.361 -0.714976 52.1748 6.78071C54.5575 9.78854 55.8442 13.5125 55.8442 17.3797Z" fill="#00A2E5"/>
</g>
<defs>
<clipPath id="clip0_279_1049">
<rect width="160.976" height="34.3751" fill="white" transform="translate(0.326904 0.192078)"/>
</clipPath>
</defs>
</svg>
