<svg width="109" height="35" viewBox="0 0 109 35" fill="none" xmlns="http://www.w3.org/2000/svg">
<g clip-path="url(#clip0_279_972)">
<path d="M46.8675 34.0713H38.1061L43.5861 0.795258H52.347L46.8675 34.0713Z" fill="#1A1F71"/>
<path d="M78.6282 1.60874C76.9001 0.935447 74.1591 0.192047 70.7699 0.192047C62.1178 0.192047 56.025 4.72302 55.9876 11.2009C55.9158 15.9803 60.3499 18.6349 63.6662 20.2285C67.0559 21.857 68.2082 22.9198 68.2082 24.3713C68.1737 26.6006 65.4691 27.6282 62.9466 27.6282C59.4487 27.6282 57.5744 27.0984 54.7262 25.8581L53.5725 25.3265L52.3464 32.7962C54.4013 33.7156 58.1872 34.5314 62.1178 34.5672C71.3108 34.5672 77.2958 30.1063 77.3667 23.2031C77.4017 19.415 75.0603 16.5125 70.0125 14.1407C66.9481 12.6181 65.0715 11.5915 65.0715 10.0336C65.1074 8.61739 66.6587 7.16682 70.1179 7.16682C72.9661 7.09578 75.0589 7.76813 76.6442 8.44095L77.4367 8.7943L78.6282 1.60874Z" fill="#1A1F71"/>
<path d="M90.2731 22.2828C90.9946 20.3711 93.771 12.9724 93.771 12.9724C93.7346 13.0435 94.4911 11.0255 94.9238 9.78662L95.536 12.6539C95.536 12.6539 97.1952 20.6191 97.5555 22.2828C96.1862 22.2828 92.0036 22.2828 90.2731 22.2828ZM101.088 0.795258H94.311C92.2211 0.795258 90.6334 1.39656 89.7317 3.55619L76.7178 34.0708H85.9108C85.9108 34.0708 87.4243 29.9638 87.7496 29.0792C88.7582 29.0792 97.7011 29.0792 98.9985 29.0792C99.2501 30.2475 100.044 34.0708 100.044 34.0708H108.156L101.088 0.795258Z" fill="#1A1F71"/>
<path d="M30.7882 0.795258L22.2079 23.4863L21.2703 18.8843C19.684 13.5742 14.709 7.80485 9.1571 4.93618L17.0163 34.036H26.2813L40.0527 0.795258H30.7882Z" fill="#1A1F71"/>
<path d="M14.2404 0.795258H0.14421L0 1.46761C10.9959 4.22901 18.2783 10.8853 21.2703 18.8857L18.206 3.59241C17.7015 1.46714 16.1511 0.865363 14.2404 0.795258Z" fill="#F7B600"/>
</g>
<defs>
<clipPath id="clip0_279_972">
<rect width="108.156" height="34.3751" fill="white" transform="translate(0 0.192078)"/>
</clipPath>
</defs>
</svg>
