<svg xmlns="http://www.w3.org/2000/svg" width="104" height="43" viewBox="0 0 104 43" fill="none">
<g clip-path="url(#clip0_293_5392)">
<path d="M19.7274 5.51274C18.5189 6.95704 16.5853 8.0962 14.6517 7.93346C14.41 5.98061 15.3567 3.9057 16.4644 2.62415C17.6729 1.13916 19.7878 0.0813688 21.4999 0C21.7013 2.03422 20.9158 4.02776 19.7274 5.51274ZM21.4797 8.31996C18.68 8.15723 16.2832 9.927 14.9538 9.927C13.6043 9.927 11.57 8.40133 9.35443 8.44202C6.47417 8.4827 3.79533 10.1304 2.32498 12.7546C-0.696268 18.0029 1.53946 25.7736 4.46 30.0454C5.89006 32.161 7.6021 34.48 9.85797 34.3987C11.993 34.3173 12.8389 32.9951 15.4171 32.9951C18.0154 32.9951 18.7606 34.3987 21.0165 34.358C23.3529 34.3173 24.8232 32.2424 26.2533 30.1268C27.8848 27.7264 28.5495 25.3871 28.5897 25.265C28.5495 25.2243 24.078 23.4953 24.0377 18.2876C23.9974 13.9344 27.5625 11.8595 27.7236 11.7375C25.7095 8.72681 22.5674 8.40133 21.4797 8.31996ZM37.6535 2.42072V34.1342H42.5278V23.2918H49.2752C55.4386 23.2918 59.7691 19.02 59.7691 12.8359C59.7691 6.6519 55.5192 2.42072 49.4364 2.42072H37.6535ZM42.5278 6.57053H48.1473C52.3771 6.57053 54.7941 8.84886 54.7941 12.8563C54.7941 16.8637 52.3771 19.1624 48.1272 19.1624H42.5278V6.57053ZM68.6717 34.3783C71.7332 34.3783 74.5732 32.812 75.8623 30.3302H75.963V34.1342H80.4747V18.3487C80.4747 13.7717 76.8492 10.8221 71.27 10.8221C66.0936 10.8221 62.2666 13.8124 62.1256 17.9215H66.5165C66.8791 15.9686 68.6717 14.6871 71.129 14.6871C74.1099 14.6871 75.7817 16.0907 75.7817 18.6741V20.4236L69.6989 20.7897C64.0391 21.1356 60.9776 23.4749 60.9776 27.5434C60.9776 31.6525 64.1398 34.3783 68.6717 34.3783ZM69.9809 30.615C67.3826 30.615 65.731 29.3538 65.731 27.4213C65.731 25.4278 67.3222 24.2683 70.3636 24.0852L75.7817 23.7394V25.5295C75.7817 28.4994 73.2841 30.615 69.9809 30.615ZM86.4971 42.7593C91.2505 42.7593 93.4862 40.9285 95.44 35.3751L104 11.1272H99.0453L93.305 29.8624H93.2043L87.4639 11.1272H82.368L90.6261 34.2156L90.183 35.6192C89.4378 37.9992 88.2293 38.9146 86.0741 38.9146C85.6914 38.9146 84.9462 38.874 84.644 38.8333V42.6373C84.926 42.7186 86.1345 42.7593 86.4971 42.7593Z" fill="black"/>
</g>
<defs>
<clipPath id="clip0_293_5392">
<rect width="103.125" height="42.7593" fill="white" transform="translate(0.874512)"/>
</clipPath>
</defs>
</svg>