<svg xmlns="http://www.w3.org/2000/svg" width="171" height="44" viewBox="0 0 171 44" fill="none">
<g clip-path="url(#clip0_293_2826)">
<path d="M33.0235 44C45.0493 44.0575 56.0257 34.1924 56.0257 22.1912C56.0257 9.06711 45.0493 -0.00439402 33.0235 -2.8943e-05H22.6739C10.504 -0.00439402 0.487061 9.06982 0.487061 22.1912C0.487061 34.195 10.504 44.0576 22.6739 44H33.0235Z" fill="#0079BE"/>
<path d="M22.7227 1.81851C11.6023 1.822 2.591 10.8359 2.58838 21.9608C2.591 33.0838 11.6022 42.0968 22.7227 42.1003C33.8458 42.0968 42.8589 33.0838 42.8605 21.9608C42.8589 10.8359 33.8458 1.822 22.7227 1.81851ZM9.96013 21.9608C9.9706 16.5246 13.3658 11.8888 18.1534 10.0467V33.8722C13.3658 32.0311 9.97051 27.3979 9.96013 21.9608ZM27.2904 33.8774V10.0459C32.0797 11.8836 35.4801 16.5219 35.4889 21.9608C35.4801 27.4014 32.0797 32.0362 27.2904 33.8774Z" fill="white"/>
<path d="M63.0781 9.46618C63.0781 7.38482 61.9929 7.52189 60.9522 7.49927V6.89777C61.8541 6.94229 62.7786 6.94229 63.6822 6.94229C64.6539 6.94229 65.973 6.89777 67.6858 6.89777C73.6764 6.89777 76.9389 10.8997 76.9389 14.9975C76.9389 17.2892 75.598 23.0502 67.4073 23.0502C66.2279 23.0502 65.1392 23.0047 64.0523 23.0047C63.0117 23.0047 61.9929 23.0275 60.9521 23.0502V22.4496C62.3395 22.3098 63.0117 22.2636 63.078 20.6896V9.46618H63.0781ZM65.3462 20.3203C65.3462 22.1021 66.6199 22.3099 67.7531 22.3099C72.752 22.3099 74.3933 18.5376 74.3933 15.0892C74.3933 10.7634 71.6162 7.63974 67.1517 7.63974C66.2019 7.63974 65.7653 7.70784 65.3463 7.73237L65.3462 20.3203Z" fill="#211E1F"/>
<path d="M77.7507 22.4497H78.189C78.8359 22.4497 79.2996 22.4497 79.2996 21.6839V15.414C79.2996 14.3971 78.9529 14.2555 78.0965 13.7955V13.4244C79.1834 13.0979 80.4808 12.6614 80.5715 12.5916C80.7348 12.499 80.8727 12.4746 80.9888 12.4746C81.1033 12.4746 81.1512 12.6143 81.1512 12.8002V21.6839C81.1512 22.4497 81.6602 22.4497 82.308 22.4497H82.7008V23.0512C81.9133 23.0512 81.1032 23.005 80.2721 23.005C79.4392 23.005 78.6055 23.0277 77.7508 23.0512V22.4497H77.7507ZM80.2257 8.91172C79.6234 8.91172 79.0926 8.35657 79.0926 7.75497C79.0926 7.17529 79.6479 6.64188 80.2257 6.64188C80.8255 6.64188 81.3598 7.12998 81.3598 7.75497C81.3598 8.38005 80.8492 8.91172 80.2257 8.91172Z" fill="#211E1F"/>
<path d="M84.899 15.552C84.899 14.6964 84.6431 14.466 83.5581 14.026V13.5869C84.5524 13.263 85.4998 12.9618 86.6109 12.4747C86.68 12.4747 86.748 12.5218 86.748 12.706V14.211C88.069 13.263 89.203 12.4746 90.7551 12.4746C92.7194 12.4746 93.4134 13.9098 93.4134 15.7143V21.6841C93.4134 22.4497 93.9223 22.4497 94.571 22.4497H94.9875V23.0512C94.1755 23.0512 93.3663 23.005 92.5352 23.005C91.7014 23.005 90.8676 23.0277 90.0357 23.0512V22.4497H90.4512C91.1007 22.4497 91.5609 22.4497 91.5609 21.6841V15.6925C91.5609 14.3716 90.7551 13.7247 89.4342 13.7247C88.6948 13.7247 87.5144 14.3263 86.7479 14.836V21.6839C86.7479 22.4496 87.2594 22.4496 87.9082 22.4496H88.3238V23.0511C87.5144 23.0511 86.7034 23.0048 85.8706 23.0048C85.0385 23.0048 84.204 23.0276 83.3719 23.0511V22.4496H83.7893C84.437 22.4496 84.8989 22.4496 84.8989 21.6839V15.552H84.899Z" fill="#211E1F"/>
<path d="M96.7465 16.6642C96.6984 16.8729 96.6984 17.2194 96.7465 18.0068C96.8828 20.2042 98.2978 22.0088 100.146 22.0088C101.42 22.0088 102.417 21.3148 103.271 20.4592L103.594 20.784C102.529 22.1948 101.211 23.3977 99.3148 23.3977C95.6351 23.3977 94.8947 19.8332 94.8947 18.3535C94.8947 13.8172 97.9485 12.4745 99.567 12.4745C101.442 12.4745 103.456 13.6541 103.478 16.1072C103.478 16.2477 103.478 16.3848 103.456 16.5253L103.247 16.6642H96.7465ZM100.843 15.923C101.42 15.923 101.488 15.6219 101.488 15.3451C101.488 14.1647 100.771 13.2157 99.4747 13.2157C98.0648 13.2157 97.093 14.2555 96.8154 15.923H100.843Z" fill="#211E1F"/>
<path d="M104.011 22.4497H104.636C105.282 22.4497 105.745 22.4497 105.745 21.684V15.1826C105.745 14.4659 104.89 14.3262 104.542 14.1411V13.7954C106.231 13.0769 107.157 12.4745 107.368 12.4745C107.505 12.4745 107.573 12.5444 107.573 12.7766V14.8588H107.622C108.199 13.9569 109.172 12.4745 110.582 12.4745C111.161 12.4745 111.9 12.8674 111.9 13.7011C111.9 14.3262 111.462 14.8832 110.814 14.8832C110.094 14.8832 110.094 14.3262 109.286 14.3262C108.892 14.3262 107.597 14.8588 107.597 16.2477V21.684C107.597 22.4496 108.059 22.4496 108.708 22.4496H110.002V23.0512C108.73 23.0276 107.761 23.005 106.764 23.005C105.816 23.005 104.844 23.0276 104.011 23.0512V22.4497H104.011Z" fill="#211E1F"/>
<path d="M112.919 19.8332C113.221 21.3609 114.145 22.6575 115.835 22.6575C117.197 22.6575 117.707 21.8246 117.707 21.0145C117.707 18.2837 112.664 19.1628 112.664 15.4376C112.664 14.1412 113.707 12.4746 116.251 12.4746C116.99 12.4746 117.984 12.6841 118.886 13.1477L119.05 15.5058H118.517C118.287 14.0495 117.477 13.2159 115.995 13.2159C115.069 13.2159 114.191 13.7485 114.191 14.7428C114.191 17.4526 119.559 16.6172 119.559 20.2498C119.559 21.7767 118.332 23.3979 115.578 23.3979C114.653 23.3979 113.566 23.074 112.757 22.6122L112.502 19.9504L112.919 19.8332Z" fill="#211E1F"/>
<path d="M140.451 11.0864H139.873C139.434 8.38006 137.513 7.29141 134.923 7.29141C132.26 7.29141 128.396 9.07228 128.396 14.6256C128.396 19.3032 131.73 22.6573 135.292 22.6573C137.582 22.6573 139.481 21.0841 139.943 18.6537L140.474 18.7916L139.943 22.1701C138.972 22.7734 136.357 23.3977 134.828 23.3977C129.416 23.3977 125.992 19.9031 125.992 14.6963C125.992 9.95236 130.226 6.54935 134.76 6.54935C136.634 6.54935 138.438 7.15347 140.22 7.77855L140.451 11.0864Z" fill="#211E1F"/>
<path d="M141.285 22.4497H141.724C142.372 22.4497 142.837 22.4497 142.837 21.684V8.79664C142.837 7.29156 142.489 7.2452 141.609 6.99116V6.621C142.535 6.32077 143.506 5.90338 143.993 5.62497C144.245 5.48704 144.432 5.36996 144.5 5.36996C144.641 5.36996 144.687 5.50973 144.687 5.6956V21.684C144.687 22.4497 145.195 22.4497 145.844 22.4497H146.234V23.0512C145.451 23.0512 144.641 23.005 143.807 23.005C142.975 23.005 142.143 23.0278 141.285 23.0512V22.4497H141.285Z" fill="#211E1F"/>
<path d="M156.141 21.7765C156.141 22.1947 156.394 22.2174 156.787 22.2174C157.066 22.2174 157.412 22.1947 157.713 22.1947V22.6819C156.718 22.7735 154.82 23.2598 154.38 23.3977L154.264 23.3278V21.4553C152.878 22.5884 151.812 23.3977 150.168 23.3977C148.919 23.3977 147.623 22.5884 147.623 20.6459V14.7199C147.623 14.1184 147.532 13.5395 146.238 13.4243V12.9843C147.072 12.9616 148.919 12.8227 149.221 12.8227C149.478 12.8227 149.478 12.9843 149.478 13.4933V19.462C149.478 20.1579 149.478 22.1474 151.489 22.1474C152.276 22.1474 153.316 21.5459 154.287 20.7384V14.5103C154.287 14.0493 153.177 13.7953 152.346 13.5629V13.1465C154.426 13.0068 155.724 12.8226 155.954 12.8226C156.141 12.8226 156.141 12.9841 156.141 13.2399V21.7765H156.141Z" fill="#211E1F"/>
<path d="M160.745 14.1412C161.669 13.3546 162.918 12.4747 164.192 12.4747C166.877 12.4747 168.494 14.8143 168.494 17.3346C168.494 20.3658 166.274 23.3977 162.964 23.3977C161.253 23.3977 160.351 22.8416 159.748 22.5884L159.055 23.1192L158.571 22.8661C158.776 21.5007 158.894 20.158 158.894 18.7472V8.79655C158.894 7.29156 158.545 7.2452 157.666 6.99116V6.621C158.594 6.32077 159.563 5.90338 160.05 5.62489C160.305 5.48695 160.489 5.36996 160.56 5.36996C160.698 5.36996 160.745 5.50973 160.745 5.6956V14.1412H160.745V14.1412ZM160.745 20.4348C160.745 21.3148 161.577 22.7972 163.127 22.7972C165.603 22.7972 166.644 20.3658 166.644 18.3056C166.644 15.807 164.748 13.7249 162.943 13.7249C162.085 13.7249 161.369 14.281 160.745 14.8143V20.4348H160.745Z" fill="#211E1F"/>
<path d="M60.9257 36.5052H61.1029C61.5551 36.5052 62.0335 36.4441 62.0335 35.7884V29.1919C62.0335 28.5353 61.5551 28.4734 61.1029 28.4734H60.9257V28.0954C61.4172 28.0954 62.1723 28.1452 62.7913 28.1452C63.4199 28.1452 64.1742 28.0954 64.7661 28.0954V28.4734H64.5888C64.1375 28.4734 63.6583 28.5354 63.6583 29.1919V35.7884C63.6583 36.4441 64.1375 36.5052 64.5888 36.5052H64.7661V36.885C64.1619 36.885 63.405 36.8352 62.7773 36.8352C62.1602 36.8352 61.4172 36.885 60.9257 36.885V36.5052Z" fill="#211E1F"/>
<path d="M64.7666 36.9383C64.1581 36.9383 63.4039 36.8877 62.777 36.8877C62.1615 36.8877 61.4213 36.9383 60.9262 36.9383H60.8722V36.8842V36.5061V36.4511H60.9262H61.1027C61.5592 36.4407 61.9748 36.404 61.9792 35.7885V29.1919C61.9748 28.5765 61.5593 28.5353 61.1027 28.5267H60.8722V28.4735V28.0396H60.9262C61.4213 28.0396 62.1756 28.0893 62.791 28.0893C63.4178 28.0893 64.1713 28.0396 64.7666 28.0396H64.8226V28.0972V28.5267H64.7666H64.5903C64.1337 28.5354 63.7154 28.5765 63.7129 29.1919V35.7885C63.7154 36.404 64.1336 36.4407 64.5903 36.4511H64.8225V36.5061V36.9383H64.7666ZM64.7125 36.8308V36.5619H64.5904C64.1408 36.5619 63.6056 36.4842 63.6029 35.7885V29.1919C63.6055 28.4961 64.1407 28.4176 64.5904 28.4176H64.7125V28.1504C64.1311 28.1504 63.4021 28.1993 62.791 28.1993C62.193 28.1993 61.4692 28.1539 60.9821 28.1504V28.4176H61.1026C61.5513 28.4176 62.0882 28.4961 62.0882 29.1919V35.7885C62.0882 36.4843 61.5513 36.5619 61.1026 36.5619H60.9821V36.8308C61.4692 36.8256 62.1807 36.7802 62.777 36.7802C63.3899 36.7802 64.1188 36.8273 64.7125 36.8308Z" fill="#211E1F"/>
<path d="M73.4155 34.403L73.4408 34.3785V29.6572C73.4408 28.6236 72.7224 28.4734 72.3452 28.4734H72.0675V28.0953C72.6603 28.0953 73.2391 28.1451 73.8301 28.1451C74.346 28.1451 74.8647 28.0953 75.3797 28.0953V28.4734H75.1912C74.6612 28.4734 74.0693 28.5737 74.0693 30.0719V35.8024C74.0693 36.2425 74.0823 36.6824 74.1443 37.0727H73.6651L67.183 29.845V35.0334C67.183 36.129 67.3951 36.5053 68.3659 36.5053H68.5788V36.885C68.0385 36.885 67.4981 36.8353 66.9559 36.8353C66.3911 36.8353 65.8115 36.885 65.244 36.885V36.5053H65.4204C66.289 36.5053 66.5528 35.915 66.5528 34.9085V29.605C66.5528 28.9004 65.9722 28.4735 65.4082 28.4735H65.2441V28.0955C65.7224 28.0955 66.2132 28.1452 66.6907 28.1452C67.0686 28.1452 67.4345 28.0955 67.8116 28.0955L73.4155 34.403Z" fill="#211E1F"/>
<path d="M74.1442 37.1277L73.6248 37.1084L67.236 29.9873V35.0333C67.2509 36.1281 67.4176 36.4389 68.3657 36.4511H68.6355V36.5052V36.9382H68.5796C68.0348 36.9382 67.4927 36.8876 66.9557 36.8876C66.3917 36.8876 65.8138 36.9382 65.2428 36.9382H65.1878V36.8841V36.4511H65.2428H65.42C66.252 36.4467 66.4895 35.9124 66.4991 34.9085V29.6058C66.4973 28.9353 65.9474 28.5285 65.4078 28.5267H65.1877V28.4708V28.0413H65.2427C65.7239 28.0413 66.217 28.0893 66.6893 28.0893C67.0639 28.0893 67.4289 28.0413 67.8531 28.0597L73.3862 34.2887V29.6582C73.3792 28.656 72.7115 28.5355 72.3447 28.5267H72.0112V28.4708V28.0413H72.0671C72.6617 28.0413 73.2413 28.0893 73.8297 28.0893C74.3422 28.0893 74.8581 28.0413 75.3785 28.0413H75.4335V28.0955V28.5266H75.3785H75.1908C74.6713 28.5416 74.1379 28.5869 74.1231 30.0719V35.8015C74.1231 36.2415 74.1362 36.6815 74.1974 37.063L74.2096 37.1276H74.1442V37.1277ZM73.6659 37.0167H74.0823C74.0256 36.6387 74.0159 36.2196 74.0159 35.8015V30.0719C74.0159 28.5607 74.6489 28.4176 75.191 28.4176H75.3237V28.1504C74.8278 28.1539 74.3302 28.1993 73.8301 28.1993C73.2539 28.1993 72.6934 28.1539 72.1233 28.1504L72.1225 28.4176H72.3451C72.7318 28.4176 73.4957 28.5904 73.4957 29.6581L73.4783 34.416L73.4529 34.4423L73.4102 34.4816L67.8115 28.1504C67.4379 28.1504 67.0729 28.1993 66.6897 28.1993C66.2279 28.1993 65.7556 28.1539 65.299 28.1504L65.2963 28.4175H65.4081C65.9991 28.4175 66.6059 28.8689 66.6059 29.6057V34.9084C66.6059 35.9149 66.3256 36.5592 65.4203 36.5627L65.299 36.5592V36.8307C65.8446 36.8254 66.4051 36.78 66.9559 36.78C67.4815 36.78 68.0044 36.8255 68.5247 36.8307V36.5627H68.3659C67.3749 36.5592 67.1288 36.128 67.1278 35.0331V29.7034L73.6659 37.0167ZM73.4152 34.402L73.4554 34.3654L73.4152 34.402ZM73.3864 34.3777V34.3733L73.3759 34.3645L73.3864 34.3777Z" fill="#211E1F"/>
<path d="M77.2642 28.7239C76.3187 28.7239 76.2829 28.951 76.0943 29.8693H75.7163C75.7661 29.5175 75.8289 29.1657 75.8673 28.799C75.9179 28.4463 75.9423 28.0953 75.9423 27.7304H76.2453C76.3465 28.1085 76.6609 28.0954 77.0023 28.0954H83.4966C83.837 28.0954 84.1514 28.0831 84.1776 27.7043L84.4778 27.755C84.4289 28.0954 84.3783 28.4351 84.3399 28.7754C84.3172 29.1151 84.3172 29.4555 84.3172 29.7943L83.9383 29.9348C83.9121 29.4695 83.8492 28.7239 83.0068 28.7239H80.9421V35.4235C80.9421 36.3943 81.3831 36.5052 81.9853 36.5052H82.2254V36.885C81.7348 36.885 80.8523 36.8352 80.1738 36.8352C79.4188 36.8352 78.5361 36.885 78.0446 36.885V36.5052H78.2846C78.9787 36.5052 79.3296 36.4431 79.3296 35.4497V28.7239H77.2642Z" fill="#211E1F"/>
<path d="M82.2276 36.9382C81.7316 36.9382 80.8508 36.8876 80.1742 36.8876C79.4199 36.8876 78.5391 36.9382 78.0449 36.9382H77.9925V36.885V36.4511H78.0449H78.285C78.979 36.4345 79.2583 36.4258 79.2741 35.4497V28.779H77.2644V28.7239V28.6681H79.3833V35.4497C79.3833 36.4597 78.9765 36.5619 78.285 36.5628H78.1V36.8281C78.5967 36.8256 79.4435 36.7801 80.1743 36.7801C80.8308 36.7801 81.6723 36.8256 82.17 36.8281V36.5628H81.9858C81.3773 36.5619 80.8875 36.4126 80.8875 35.4235V28.6681H83.0072C83.8523 28.6716 83.9623 29.3901 83.9902 29.8571L84.2617 29.7567C84.2617 29.4285 84.2635 29.0993 84.2862 28.7676C84.3228 28.4437 84.3691 28.1224 84.4162 27.8012L84.2241 27.7689C84.1657 28.1355 83.812 28.1539 83.4951 28.1504H77.0025H76.937C76.6411 28.1504 76.3172 28.1364 76.2046 27.7847H75.9968C75.9949 28.133 75.9705 28.4709 75.9225 28.806C75.8858 29.1518 75.8282 29.4844 75.7811 29.817H76.0509C76.2167 28.9396 76.325 28.655 77.2643 28.6682V28.724V28.779C76.3337 28.7956 76.353 28.9528 76.1477 29.8834L76.1382 29.9262H76.0946H75.6537L75.6607 29.8607C75.7113 29.508 75.7751 29.157 75.8126 28.7903C75.865 28.4411 75.8894 28.0919 75.8894 27.7305V27.6754H75.9427H76.2884L76.2971 27.7147C76.3835 28.0325 76.6166 28.0343 76.937 28.0395H77.0025H83.4951C83.8462 28.0343 84.101 28.029 84.1228 27.6998L84.1281 27.6404L84.1848 27.6527L84.5401 27.7086L84.5322 27.7636C84.4815 28.1006 84.4319 28.4411 84.3952 28.7789C84.3699 29.1142 84.3699 29.4547 84.3699 29.7943V29.8335L84.335 29.8475L83.8888 30.0098L83.8854 29.9365C83.8522 29.4633 83.8024 28.7789 83.0071 28.7789H80.9974V35.4234C81.0088 36.3732 81.3858 36.4387 81.9856 36.4509H82.2807V36.505V36.9381L82.2276 36.9382Z" fill="#211E1F"/>
<path d="M84.8806 36.5052H85.0578C85.5101 36.5052 85.9893 36.4441 85.9893 35.7884V29.1919C85.9893 28.5353 85.5101 28.4734 85.0578 28.4734H84.8806V28.0954C85.6471 28.0954 86.9585 28.1452 88.0138 28.1452C89.0737 28.1452 90.3806 28.0954 91.2361 28.0954C91.2153 28.6358 91.2266 29.4687 91.264 30.0214L90.8843 30.1225C90.8241 29.3046 90.673 28.6507 89.3504 28.6507H87.6018V31.9481H89.0982C89.8532 31.9481 90.0183 31.5212 90.0925 30.8395H90.4697C90.4453 31.3326 90.4321 31.8233 90.4321 32.314C90.4321 32.7933 90.4452 33.2708 90.4697 33.7492L90.0925 33.8242C90.0183 33.0691 89.98 32.5784 89.1104 32.5784H87.6019V35.5109C87.6019 36.3306 88.3291 36.3306 89.1358 36.3306C90.6469 36.3306 91.313 36.2285 91.6911 34.795L92.0439 34.8814C91.8788 35.5502 91.7286 36.2163 91.6169 36.885C90.8102 36.885 89.3619 36.8352 88.2304 36.8352C87.0955 36.8352 85.5984 36.885 84.8806 36.885V36.5052Z" fill="#211E1F"/>
<path d="M91.6156 36.9382C90.8072 36.9382 89.3598 36.8866 88.2293 36.8866C87.0952 36.8866 85.5988 36.9382 84.8803 36.9382H84.8271V36.885V36.5052V36.4511H84.8803H85.0568C85.5133 36.4441 85.9271 36.4039 85.9333 35.7885V29.1919C85.9272 28.5773 85.5133 28.5362 85.0568 28.5266H84.8271V28.4735V28.0413H84.8803C85.6486 28.0413 86.9581 28.0893 88.0136 28.0893C89.0725 28.0893 90.3786 28.0413 91.2359 28.0413H91.2926L91.2899 28.0972C91.2812 28.2866 91.2778 28.51 91.2778 28.7476C91.2778 29.1831 91.2899 29.6589 91.3153 30.0178L91.3171 30.0632L91.2752 30.0755L90.8325 30.1908L90.83 30.1262C90.7558 29.309 90.6467 28.7162 89.3503 28.704H87.6541L87.6522 31.8914H89.098C89.8227 31.8844 89.9526 31.5134 90.0383 30.8351L90.0427 30.7853H90.0915H90.5255L90.5246 30.842C90.5003 31.3326 90.4844 31.8232 90.4844 32.3139C90.4844 32.7905 90.5003 33.2681 90.5246 33.7474L90.5255 33.792L90.4801 33.8024L90.0427 33.8897L90.0383 33.8303C89.9518 33.062 89.9456 32.6412 89.1093 32.6317L87.654 32.6308V35.5108C87.655 36.2756 88.3148 36.2712 89.1356 36.2756C90.651 36.2669 91.2587 36.1936 91.6385 34.7793L91.6508 34.7286L91.704 34.7382L92.1074 34.842L92.0951 34.8945C91.9328 35.5615 91.7817 36.2267 91.669 36.8936L91.6586 36.9382H91.6156ZM91.5694 36.8282C91.6786 36.1935 91.8225 35.5562 91.9771 34.9223L91.7283 34.8595C91.3512 36.2686 90.6212 36.3942 89.1354 36.3847C88.3427 36.3847 87.5483 36.3847 87.5447 35.5108V32.5233H89.1093C89.9882 32.5137 90.0783 33.0445 90.1402 33.7612L90.4127 33.7046C90.3882 33.2409 90.3769 32.7756 90.3769 32.3138C90.3769 31.8397 90.3882 31.3684 90.4127 30.8943H90.1402C90.0705 31.5499 89.8652 32.0108 89.0979 32.0021H87.5448V28.5939H89.3503C90.6599 28.585 90.8771 29.2608 90.933 30.0527L91.2046 29.9793C91.1828 29.624 91.1678 29.1683 91.1678 28.7475C91.1678 28.5319 91.1731 28.3285 91.1801 28.1504C90.3246 28.1539 89.0499 28.1993 88.0137 28.1993C86.9791 28.1993 85.7055 28.1539 84.9345 28.1504V28.4175H85.0567C85.5054 28.4175 86.0415 28.4961 86.0432 29.1919V35.7885C86.0414 36.4825 85.5054 36.5593 85.0567 36.5628H84.9345V36.8282C85.6688 36.8273 87.1233 36.7802 88.2292 36.7802C89.3397 36.7802 90.7575 36.8273 91.5694 36.8282Z" fill="#211E1F"/>
<path d="M93.7427 29.4294C93.7427 28.511 93.2398 28.4734 92.8478 28.4734H92.6217V28.0945C93.025 28.0945 93.8046 28.1452 94.5729 28.1452C95.3281 28.1452 95.933 28.0945 96.5992 28.0945C98.1845 28.0945 99.5963 28.5232 99.5963 30.3129C99.5963 31.4434 98.8412 32.1366 97.8467 32.5286L99.9987 35.75C100.351 36.2826 100.602 36.4318 101.22 36.5051V36.8849C100.804 36.8849 100.401 36.8352 99.9864 36.8352C99.5962 36.8352 99.1919 36.8849 98.8034 36.8849C97.8343 35.613 97.0015 34.2528 96.1834 32.8036H95.3551V35.4995C95.3551 36.4703 95.8065 36.5052 96.3852 36.5052H96.6122V36.885C95.8928 36.885 95.1658 36.8353 94.4472 36.8353C93.8422 36.8353 93.2502 36.885 92.6217 36.885V36.5052H92.8478C93.3157 36.5052 93.7427 36.2939 93.7427 35.8268V29.4294ZM95.3549 32.3505H95.9696C97.2294 32.3505 97.9076 31.8722 97.9076 30.3862C97.9076 29.267 97.191 28.5485 96.0691 28.5485C95.6911 28.5485 95.5305 28.5878 95.3548 28.5991V32.3505H95.3549Z" fill="#211E1F"/>
<path d="M101.22 36.9383C100.798 36.9383 100.398 36.8876 99.9838 36.8876C99.5997 36.8876 99.1981 36.9383 98.7591 36.9173C97.7934 35.6506 96.9658 34.2983 96.1522 32.8595H95.4084V35.4979C95.4215 36.4451 95.8021 36.4372 96.3844 36.4512H96.6664V36.5053V36.9384H96.6104C95.8911 36.9384 95.1604 36.8877 94.4454 36.8877C93.8438 36.8877 93.2538 36.9384 92.6216 36.9384H92.5665V36.8842V36.4512H92.6216H92.8477C93.3016 36.4486 93.6841 36.2513 93.6858 35.827V29.4296C93.6763 28.5357 93.2389 28.5408 92.8477 28.5278H92.5665V28.4737V28.0398H92.6216C93.0293 28.0398 93.8063 28.0895 94.5728 28.0895C95.3244 28.0895 95.9296 28.0398 96.6 28.0398C98.1863 28.0433 99.6477 28.4815 99.652 30.3096C99.652 31.4472 98.9004 32.1568 97.9287 32.5533L100.044 35.7205C100.396 36.2426 100.615 36.3727 101.228 36.4512L101.274 36.4582V36.5053V36.9384H101.22V36.9383ZM95.3535 32.7495H96.2142L96.229 32.7774C97.0496 34.224 97.8763 35.5824 98.8035 36.8308C99.1877 36.8308 99.5918 36.7793 99.9838 36.7793C100.386 36.7793 100.774 36.8229 101.166 36.8291V36.5532C100.575 36.4798 100.298 36.3035 99.9542 35.7806L97.7638 32.5023L97.8257 32.477C98.8105 32.0895 99.5395 31.4164 99.5404 30.3093C99.5395 28.5624 98.1827 28.1574 96.6 28.1504C95.9356 28.1504 95.3315 28.2002 94.5728 28.2002C93.8335 28.2002 93.0869 28.1539 92.6749 28.1504V28.4175H92.8477C93.2388 28.4185 93.7957 28.483 93.7957 29.4295V35.8268C93.7957 36.3323 93.3217 36.5628 92.8477 36.5637H92.6749V36.829C93.2808 36.8272 93.8543 36.7793 94.4454 36.7793C95.1498 36.7793 95.8596 36.8273 96.5564 36.829V36.5637H96.3843C95.8099 36.5627 95.2984 36.4912 95.2984 35.4977V32.7495H95.3533H95.3535ZM95.3535 32.4037H95.2984V28.5485L95.3463 28.5441C95.5184 28.5311 95.6887 28.4952 96.0692 28.4952C97.2165 28.4952 97.9619 29.2408 97.9636 30.3887C97.9602 31.8921 97.2391 32.4028 95.9696 32.4037H95.3535V32.4037ZM95.9696 32.2956C97.2162 32.285 97.8432 31.8521 97.8563 30.3888C97.8493 29.2888 97.1657 28.6061 96.0692 28.6018C95.7287 28.6018 95.5689 28.6332 95.4083 28.6472V32.2956H95.9696Z" fill="#211E1F"/>
<path d="M109.768 34.403L109.79 34.3785V29.6572C109.79 28.6236 109.074 28.4734 108.697 28.4734H108.421V28.0953C109.012 28.0953 109.59 28.1451 110.183 28.1451C110.699 28.1451 111.214 28.0953 111.733 28.0953V28.4734H111.544C111.015 28.4734 110.423 28.5737 110.423 30.0719V35.8024C110.423 36.2425 110.435 36.6824 110.497 37.0727H110.019L103.536 29.845V35.0334C103.536 36.129 103.75 36.5053 104.719 36.5053H104.933V36.885C104.393 36.885 103.851 36.8353 103.31 36.8353C102.742 36.8353 102.163 36.885 101.597 36.885V36.5053H101.772C102.642 36.5053 102.906 35.915 102.906 34.9085V29.605C102.906 28.9004 102.327 28.4735 101.762 28.4735H101.597V28.0955C102.074 28.0955 102.567 28.1452 103.045 28.1452C103.42 28.1452 103.787 28.0955 104.165 28.0955L109.768 34.403Z" fill="#211E1F"/>
<path d="M110.497 37.1267L109.979 37.1093L103.589 29.9873V35.0325C103.604 36.1281 103.77 36.4388 104.72 36.4511H104.986V36.5052V36.9383H104.931C104.386 36.9383 103.847 36.8867 103.307 36.8867C102.745 36.8867 102.163 36.9383 101.597 36.9383H101.54V36.885V36.4511H101.597H101.772C102.603 36.4476 102.841 35.9125 102.849 34.905V29.6049C102.848 28.9344 102.299 28.5276 101.761 28.5267H101.54V28.4735V28.0396H101.597C102.077 28.0396 102.57 28.0893 103.044 28.0893C103.415 28.0893 103.779 28.0396 104.202 28.057L109.736 34.2887V29.6564C109.733 28.6559 109.062 28.5319 108.696 28.5268H108.364V28.4735V28.0396H108.419C109.014 28.0396 109.594 28.0893 110.182 28.0893C110.696 28.0893 111.212 28.0396 111.73 28.0396H111.785V28.0964V28.5268H111.73H111.543C111.024 28.5407 110.488 28.5869 110.475 30.072V35.8015C110.475 36.2415 110.487 36.678 110.551 37.0656L110.558 37.1267H110.497ZM110.019 37.0167H110.433C110.378 36.6387 110.365 36.2197 110.365 35.8015V30.0719C110.366 28.5606 111.004 28.421 111.543 28.4167H111.675V28.1504C111.181 28.1539 110.682 28.1993 110.182 28.1993C109.604 28.1993 109.043 28.1539 108.473 28.1504V28.4167H108.696C109.084 28.421 109.847 28.5904 109.847 29.6564L109.83 34.416L109.805 34.4422L109.767 34.4824L104.164 28.1505C103.79 28.1505 103.425 28.1994 103.044 28.1994C102.578 28.1994 102.108 28.154 101.649 28.1505V28.4168H101.761C102.352 28.4211 102.959 28.8672 102.959 29.6049V34.9049C102.959 35.9159 102.674 36.5593 101.772 36.5628L101.649 36.5619V36.8282C102.193 36.8256 102.755 36.7802 103.307 36.7802C103.835 36.7802 104.358 36.8256 104.879 36.8282V36.5628H104.72C103.728 36.5619 103.48 36.1281 103.478 35.0324V29.7052L110.019 37.0167ZM109.767 34.4021L109.806 34.3663L109.767 34.4021ZM109.736 34.3785V34.374L109.726 34.3645L109.736 34.3785Z" fill="#211E1F"/>
<path d="M113.758 35.0839C113.63 35.5108 113.478 35.8408 113.478 36.0651C113.478 36.444 114.008 36.5051 114.422 36.5051H114.563V36.8849C114.058 36.8578 113.544 36.8351 113.037 36.8351C112.584 36.8351 112.133 36.8579 111.679 36.8849V36.5051H111.755C112.245 36.5051 112.662 36.2161 112.848 35.6863L114.865 29.9086C115.027 29.4424 115.256 28.8129 115.332 28.3459C115.733 28.2089 116.237 27.9575 116.476 27.8055C116.515 27.7925 116.537 27.7794 116.576 27.7794C116.613 27.7794 116.638 27.7794 116.666 27.8186C116.702 27.9182 116.739 28.0325 116.779 28.1329L119.095 34.719C119.246 35.159 119.396 35.6243 119.559 36.0032C119.711 36.3559 119.976 36.5051 120.393 36.5051H120.467V36.8849C119.9 36.8578 119.333 36.8352 118.731 36.8352C118.113 36.8352 117.482 36.8579 116.84 36.8849V36.5051H116.98C117.268 36.5051 117.761 36.4563 117.761 36.1411C117.761 35.9778 117.647 35.6382 117.507 35.234L117.017 33.7735H114.159L113.758 35.0839ZM115.594 29.5053H115.569L114.398 33.069H116.751L115.594 29.5053Z" fill="#211E1F"/>
<path d="M120.463 36.9383C119.896 36.913 119.33 36.8867 118.73 36.8867C118.113 36.8867 117.486 36.913 116.842 36.9383L116.785 36.9418V36.885V36.4494H116.84H116.979C117.27 36.4494 117.703 36.383 117.703 36.1413C117.707 35.998 117.593 35.6523 117.454 35.2517L116.975 33.8278H114.198L113.807 35.0997C113.68 35.5292 113.529 35.8618 113.529 36.067C113.534 36.3744 114.004 36.4494 114.422 36.4494H114.616V36.5061V36.9418L114.559 36.9383C114.055 36.913 113.541 36.8867 113.039 36.8867C112.588 36.8867 112.134 36.913 111.682 36.9383L111.624 36.9418V36.885V36.4494H111.679H111.754C112.223 36.4476 112.614 36.1815 112.795 35.669L114.811 29.8905C114.976 29.4234 115.203 28.7957 115.312 28.2938C115.707 28.1602 116.212 27.907 116.455 27.7534C116.49 27.742 116.525 27.7245 116.576 27.7245C116.607 27.7237 116.675 27.7315 116.715 27.798C116.751 27.9018 116.79 28.0136 116.829 28.1157L119.148 34.701C119.296 35.1427 119.446 35.6081 119.61 35.9799C119.756 36.3161 119.987 36.4478 120.392 36.4496H120.521V36.5063V36.9419L120.463 36.9383ZM116.895 36.8257C117.518 36.8038 118.129 36.7794 118.73 36.7794C119.315 36.7794 119.862 36.8038 120.41 36.8257V36.5628H120.392C119.961 36.5654 119.663 36.3961 119.509 36.0251C119.345 35.6427 119.191 35.1757 119.043 34.7348L116.726 28.1505C116.687 28.0501 116.651 27.9357 116.617 27.8467C116.607 27.8345 116.609 27.8345 116.599 27.8345H116.576C116.55 27.8345 116.535 27.8423 116.503 27.851C116.26 28.0091 115.755 28.2561 115.382 28.3548C115.304 28.8314 115.078 29.46 114.914 29.9262L112.899 35.7056C112.707 36.2521 112.266 36.5637 111.754 36.5628H111.734V36.8257C112.165 36.8038 112.601 36.7794 113.039 36.7794C113.525 36.7794 114.023 36.8038 114.503 36.8257V36.5628H114.422C114.012 36.5575 113.439 36.5113 113.424 36.0669C113.425 35.8155 113.579 35.4934 113.702 35.0683L113.757 35.0848L113.702 35.0664L114.117 33.7202H117.052L117.557 35.2167C117.699 35.6209 117.813 35.9561 117.813 36.1412C117.796 36.528 117.264 36.555 116.979 36.5629H116.895V36.8257H116.895ZM114.321 33.1231L115.527 29.4503H115.569H115.595V29.5053L115.581 29.5079L115.595 29.5053V29.4503H115.633L116.828 33.1231H114.321ZM114.472 33.014H116.676L115.58 29.6398L114.472 33.014ZM115.54 29.5211L115.569 29.5115L115.54 29.5211Z" fill="#211E1F"/>
<path d="M121.02 28.7239C120.076 28.7239 120.038 28.951 119.848 29.8693H119.47C119.52 29.5175 119.584 29.1657 119.623 28.799C119.674 28.4463 119.697 28.0953 119.697 27.7304H120C120.101 28.1085 120.417 28.0954 120.755 28.0954H127.253C127.591 28.0954 127.905 28.0831 127.931 27.7043L128.232 27.755C128.184 28.0954 128.134 28.4351 128.096 28.7754C128.069 29.1151 128.069 29.4555 128.069 29.7943L127.692 29.9348C127.668 29.4695 127.605 28.7239 126.761 28.7239H124.696V35.4235C124.696 36.3943 125.138 36.5052 125.741 36.5052H125.98V36.885C125.489 36.885 124.609 36.8352 123.928 36.8352C123.174 36.8352 122.291 36.885 121.801 36.885V36.5052H122.039C122.733 36.5052 123.086 36.4431 123.086 35.4497V28.7239H121.02Z" fill="#211E1F"/>
<path d="M125.98 36.9383C125.486 36.9383 124.604 36.8877 123.928 36.8877C123.176 36.8877 122.294 36.9383 121.801 36.9383H121.745V36.8851V36.4512H121.801H122.039C122.733 36.4346 123.012 36.4259 123.029 35.4498L123.027 28.7791H121.02V28.724V28.6682H123.138V35.4498C123.138 36.4598 122.73 36.5594 122.039 36.562H121.854V36.8309C122.352 36.8255 123.197 36.7802 123.928 36.7802C124.586 36.7802 125.427 36.8257 125.925 36.8309V36.562H125.739C125.134 36.5594 124.643 36.4136 124.641 35.4236V28.6682H126.761C127.606 28.6717 127.717 29.3901 127.741 29.8572L128.016 29.7568C128.016 29.4286 128.017 29.0994 128.041 28.7694C128.076 28.4455 128.123 28.1225 128.169 27.8012L127.979 27.7689C127.921 28.1355 127.566 28.1557 127.253 28.1504H120.755H120.691C120.394 28.1539 120.073 28.1364 119.958 27.7828H119.752C119.749 28.132 119.725 28.4709 119.676 28.8061C119.642 29.1527 119.58 29.4862 119.533 29.8171H119.803C119.97 28.9396 120.079 28.655 121.02 28.6682V28.724V28.779C120.087 28.7948 120.108 28.9528 119.902 29.8834L119.892 29.9262H119.848H119.407L119.414 29.8632C119.467 29.508 119.53 29.157 119.566 28.7929C119.618 28.4411 119.642 28.0919 119.642 27.7305V27.6755H119.696H120.04L120.051 27.7147C120.139 28.0325 120.369 28.0343 120.691 28.0395L120.754 28.0413H127.252C127.6 28.0344 127.854 28.029 127.876 27.7009L127.879 27.6406L127.939 27.6529L128.296 27.7088L128.286 27.7638C128.235 28.1008 128.187 28.4413 128.148 28.7791C128.123 29.1144 128.123 29.4557 128.123 29.7944V29.8337L128.087 29.8477L127.641 30.0101L127.639 29.9367C127.606 29.4636 127.556 28.779 126.761 28.779H124.751V35.4236C124.764 36.3734 125.14 36.4389 125.739 36.4511H126.034V36.5052V36.9382L125.98 36.9383Z" fill="#211E1F"/>
<path d="M128.697 36.5052H128.873C129.328 36.5052 129.804 36.4441 129.804 35.7884V29.1919C129.804 28.5353 129.328 28.4734 128.873 28.4734H128.697V28.0954C129.189 28.0954 129.943 28.1452 130.558 28.1452C131.19 28.1452 131.946 28.0954 132.537 28.0954V28.4734H132.361C131.908 28.4734 131.428 28.5354 131.428 29.1919V35.7884C131.428 36.4441 131.908 36.5052 132.361 36.5052H132.537V36.885C131.932 36.885 131.176 36.8352 130.549 36.8352C129.931 36.8352 129.189 36.885 128.697 36.885V36.5052Z" fill="#211E1F"/>
<path d="M132.538 36.9382C131.929 36.9382 131.176 36.8866 130.548 36.8866C129.933 36.8866 129.189 36.9382 128.697 36.9382H128.642V36.885V36.5052V36.4511H128.697H128.874C129.329 36.4441 129.746 36.4048 129.748 35.7885V29.1919C129.746 28.5773 129.329 28.5353 128.874 28.5266H128.642V28.4735V28.0413H128.697C129.189 28.0413 129.945 28.0893 130.559 28.0893C131.186 28.0893 131.941 28.0413 132.538 28.0413H132.591V28.0954V28.5266H132.538H132.361C131.901 28.5354 131.488 28.5773 131.482 29.1919V35.7885C131.488 36.4048 131.901 36.4441 132.361 36.4511H132.591V36.5052V36.9382H132.538ZM132.481 36.8282V36.5619H132.361C131.91 36.5619 131.376 36.4825 131.376 35.7885V29.1919C131.376 28.4961 131.91 28.4175 132.361 28.4175H132.481V28.1504C131.9 28.1539 131.172 28.1993 130.559 28.1993C129.962 28.1993 129.24 28.1539 128.752 28.1504V28.4175H128.874C129.322 28.4175 129.858 28.4961 129.859 29.1919V35.7885C129.858 36.4824 129.322 36.5619 128.874 36.5619H128.752V36.8282C129.238 36.8229 129.95 36.7801 130.548 36.7801C131.158 36.7801 131.887 36.8256 132.481 36.8282H132.481Z" fill="#211E1F"/>
<path d="M137.558 27.9069C140.242 27.9069 142.381 29.5708 142.381 32.2519C142.381 35.1486 140.304 37.0735 137.624 37.0735C134.952 37.0735 132.915 35.2602 132.915 32.5531C132.915 29.9349 134.94 27.9069 137.558 27.9069ZM137.748 36.5192C140.191 36.5192 140.616 34.3646 140.616 32.5286C140.616 30.6883 139.625 28.4604 137.534 28.4604C135.33 28.4604 134.676 30.4246 134.676 32.1104C134.676 34.3646 135.708 36.5192 137.748 36.5192Z" fill="#211E1F"/>
<path d="M132.858 32.553C132.863 29.9043 134.913 27.8553 137.558 27.8518V27.9068V27.96C134.97 27.96 132.967 29.9619 132.965 32.5529C132.971 35.2296 134.98 37.0158 137.623 37.0166C140.277 37.0158 142.324 35.1178 142.329 32.2492C142.326 29.6022 140.219 27.9635 137.558 27.96V27.9068V27.8518C140.262 27.8536 142.43 29.5341 142.435 32.2492C142.433 35.1763 140.329 37.1215 137.623 37.1266C134.931 37.1214 132.863 35.2898 132.858 32.5529H132.858V32.553ZM134.622 32.1104C134.625 30.4168 135.287 28.4036 137.534 28.4036C139.671 28.4089 140.669 30.6787 140.673 32.5286C140.669 34.3645 140.237 36.5716 137.749 36.5716V36.5192V36.465C140.143 36.4616 140.557 34.3645 140.563 32.5286C140.563 30.7032 139.58 28.518 137.534 28.5153C135.374 28.5179 134.735 30.4333 134.731 32.1104C134.733 34.3532 135.755 36.4597 137.749 36.465V36.5192V36.5716C135.659 36.5689 134.625 34.3777 134.622 32.1104Z" fill="#211E1F"/>
<path d="M150.865 34.403L150.89 34.3785V29.6572C150.89 28.6236 150.171 28.4734 149.793 28.4734H149.52V28.0953C150.11 28.0953 150.689 28.1451 151.279 28.1451C151.797 28.1451 152.313 28.0953 152.83 28.0953V28.4734H152.64C152.112 28.4734 151.519 28.5737 151.519 30.0719V35.8024C151.519 36.2425 151.532 36.6824 151.595 37.0727H151.118L144.633 29.845V35.0334C144.633 36.129 144.846 36.5053 145.815 36.5053H146.031V36.885C145.489 36.885 144.948 36.8353 144.407 36.8353C143.84 36.8353 143.26 36.885 142.693 36.885V36.5053H142.87C143.741 36.5053 144.002 35.915 144.002 34.9085V29.605C144.002 28.9004 143.426 28.4735 142.857 28.4735H142.693V28.0955C143.172 28.0955 143.663 28.1452 144.141 28.1452C144.519 28.1452 144.883 28.0955 145.262 28.0955L150.865 34.403Z" fill="#211E1F"/>
<path d="M151.596 37.1267L151.075 37.1084L144.687 29.9872V35.0333C144.701 36.1281 144.868 36.438 145.813 36.4493H146.086V36.5061V36.9382H146.031C145.485 36.9382 144.945 36.8876 144.407 36.8876C143.842 36.8876 143.264 36.9382 142.692 36.9382H142.64V36.8841V36.4493H142.692H142.87C143.701 36.4468 143.939 35.9125 143.949 34.9085V29.6049C143.948 28.9344 143.398 28.5276 142.857 28.5267H142.64V28.4735V28.0413H142.692C143.175 28.0413 143.666 28.0894 144.141 28.0894C144.514 28.0894 144.878 28.0413 145.303 28.0597L150.835 34.2887V29.6582C150.831 28.6561 150.161 28.5355 149.793 28.5268H149.462V28.4736V28.0415H149.518C150.111 28.0415 150.692 28.0895 151.277 28.0895C151.794 28.0895 152.308 28.0415 152.83 28.0415H152.884V28.0955V28.5268H152.83H152.639C152.122 28.5416 151.586 28.5888 151.575 30.072V35.8016C151.575 36.2416 151.585 36.6807 151.646 37.0657L151.656 37.1268H151.596V37.1267ZM151.118 37.0167H151.53C151.475 36.6387 151.465 36.2196 151.465 35.8015V30.0719C151.465 28.5581 152.1 28.421 152.64 28.4166H152.776V28.1504C152.279 28.1539 151.782 28.1993 151.278 28.1993C150.705 28.1993 150.142 28.1539 149.572 28.1504V28.4166H149.793C150.183 28.421 150.943 28.5931 150.943 29.6581L150.929 34.416L150.905 34.4423L150.865 34.4823L145.262 28.1504C144.891 28.1504 144.523 28.1993 144.141 28.1993C143.677 28.1993 143.205 28.1539 142.747 28.1504V28.4167H142.858C143.449 28.4211 144.057 28.8672 144.057 29.6049V34.9085C144.057 35.9151 143.776 36.5593 142.871 36.5628L142.747 36.5619V36.8282C143.293 36.8256 143.854 36.7802 144.407 36.7802C144.932 36.7802 145.453 36.8256 145.976 36.8282V36.5628H145.814C144.826 36.5619 144.579 36.1281 144.579 35.0332V29.7035L151.118 37.0167ZM150.865 34.402L150.905 34.3662L150.865 34.402ZM150.835 34.3785V34.374L150.825 34.3645L150.835 34.3785Z" fill="#211E1F"/>
<path d="M154.853 35.0839C154.73 35.5108 154.577 35.8408 154.577 36.0651C154.577 36.444 155.107 36.5051 155.52 36.5051H155.661V36.8849C155.157 36.8578 154.64 36.8351 154.136 36.8351C153.681 36.8351 153.23 36.8579 152.779 36.8849V36.5051H152.85C153.344 36.5051 153.761 36.2161 153.947 35.6863L155.964 29.9086C156.126 29.4424 156.354 28.8129 156.427 28.3459C156.83 28.2089 157.333 27.9575 157.575 27.8055C157.611 27.7925 157.636 27.7794 157.675 27.7794C157.712 27.7794 157.736 27.7794 157.761 27.8186C157.799 27.9182 157.839 28.0325 157.876 28.1329L160.192 34.719C160.343 35.159 160.493 35.6243 160.659 36.0032C160.81 36.3559 161.075 36.5051 161.489 36.5051H161.566V36.8849C160.998 36.8578 160.432 36.8352 159.827 36.8352C159.211 36.8352 158.581 36.8579 157.938 36.8849V36.5051H158.078C158.365 36.5051 158.859 36.4563 158.859 36.1411C158.859 35.9778 158.745 35.6382 158.604 35.234L158.116 33.7735H155.257L154.853 35.0839ZM156.693 29.5053H156.668L155.496 33.069H157.852L156.693 29.5053Z" fill="#211E1F"/>
<path d="M161.56 36.9382C160.994 36.9155 160.428 36.8876 159.826 36.8876C159.213 36.8876 158.582 36.9155 157.94 36.9382L157.884 36.9417V36.8841V36.4511H157.938H158.075C158.368 36.4511 158.802 36.383 158.803 36.1412C158.806 35.9979 158.692 35.6549 158.552 35.2515L158.073 33.8277H155.295L154.905 35.0996C154.78 35.5308 154.629 35.8617 154.632 36.0652C154.632 36.3742 155.103 36.4511 155.52 36.4511H155.712V36.5052V36.9417L155.656 36.9382C155.152 36.9155 154.637 36.8876 154.136 36.8876C153.685 36.8876 153.232 36.9155 152.778 36.9382L152.723 36.9417V36.8841V36.4511H152.778H152.85C153.32 36.4492 153.713 36.1796 153.896 35.6689L155.911 29.8904C156.071 29.4233 156.298 28.7956 156.41 28.2954C156.806 28.1583 157.311 27.9069 157.556 27.7531C157.589 27.7418 157.623 27.7269 157.674 27.7269C157.708 27.7234 157.772 27.7313 157.812 27.8003C157.85 27.899 157.886 28.0133 157.928 28.1154L160.244 34.7007C160.394 35.1424 160.545 35.6077 160.708 35.9823C160.855 36.3158 161.085 36.4476 161.487 36.4511H161.618V36.5052V36.9417L161.56 36.9382ZM157.992 36.8273C158.615 36.8037 159.228 36.7792 159.826 36.7792C160.412 36.7792 160.961 36.8037 161.51 36.8255L161.508 36.5626H161.487C161.061 36.5636 160.763 36.396 160.607 36.025C160.441 35.6426 160.291 35.1755 160.141 34.7363L157.824 28.1504C157.786 28.05 157.748 27.9356 157.717 27.85C157.707 27.8343 157.708 27.8343 157.698 27.8343H157.674C157.648 27.8343 157.634 27.843 157.603 27.8518C157.358 28.0063 156.854 28.2576 156.481 28.3546C156.403 28.8313 156.174 29.459 156.012 29.9261L153.996 35.7054C153.805 36.2519 153.365 36.5636 152.85 36.5626H152.832V36.8255C153.265 36.8037 153.698 36.7792 154.136 36.7792C154.624 36.7792 155.121 36.8037 155.605 36.8255V36.5626H155.52C155.11 36.5574 154.536 36.513 154.521 36.0651C154.524 35.8154 154.68 35.495 154.801 35.0681L154.853 35.0846L154.801 35.0663L155.216 33.7201H158.152L158.656 35.2165C158.795 35.6216 158.91 35.956 158.91 36.1411C158.891 36.5278 158.363 36.5548 158.075 36.5626H157.992V36.8273H157.992ZM155.42 33.1223L156.628 29.4503H156.666H156.693V29.5053L156.68 29.5079L156.693 29.5053V29.4503H156.732L157.922 33.1223H155.42ZM155.571 33.0139H157.773L156.678 29.6415L155.571 33.0139ZM156.641 29.5211L156.666 29.5115L156.641 29.5211Z" fill="#211E1F"/>
<path d="M164.738 35.6505C164.738 36.1543 165.087 36.3044 165.491 36.3559C166.007 36.3943 166.573 36.3943 167.155 36.3306C167.682 36.2669 168.136 35.9648 168.361 35.6505C168.562 35.3729 168.676 35.0202 168.751 34.7434H169.116C168.978 35.461 168.802 36.1682 168.65 36.8849C167.545 36.8849 166.435 36.8352 165.328 36.8352C164.219 36.8352 163.113 36.8849 162.005 36.8849V36.5051H162.178C162.633 36.5051 163.126 36.444 163.126 35.6627V29.1919C163.126 28.5353 162.633 28.4734 162.178 28.4734H162.005V28.0954C162.67 28.0954 163.326 28.1452 163.992 28.1452C164.636 28.1452 165.265 28.0954 165.907 28.0954V28.4734H165.59C165.114 28.4734 164.738 28.4874 164.738 29.1526V35.6505Z" fill="#211E1F"/>
<path d="M168.65 36.9382C167.54 36.9382 166.433 36.8876 165.328 36.8876C164.219 36.8876 163.111 36.9382 162.002 36.9382H161.949V36.8841V36.4511H162.002H162.177C162.634 36.4406 163.065 36.4092 163.071 35.6627V29.1894C163.065 28.5774 162.637 28.5355 162.177 28.5267H161.949V28.4735V28.0414H162.002C162.672 28.0414 163.327 28.0894 163.992 28.0894C164.631 28.0894 165.26 28.0414 165.907 28.0414H165.959V28.0955V28.5267H165.907H165.591C165.103 28.5407 164.799 28.518 164.789 29.1527V35.6506C164.793 36.1194 165.1 36.246 165.493 36.301C165.716 36.3167 165.949 36.3263 166.192 36.3263C166.5 36.3263 166.82 36.3115 167.145 36.2765C167.658 36.2164 168.1 35.9203 168.317 35.62C168.51 35.3511 168.622 35.0054 168.697 34.7304L168.709 34.6886H168.75H169.183L169.171 34.755C169.029 35.4752 168.856 36.1788 168.703 36.8956L168.693 36.9384H168.65H168.65V36.9382ZM168.604 36.8282C168.75 36.1455 168.915 35.4776 169.051 34.7966H168.792C168.714 35.0707 168.602 35.4086 168.404 35.6836C168.169 36.0101 167.703 36.3174 167.157 36.3846C166.827 36.4187 166.501 36.4361 166.192 36.4361C165.948 36.4361 165.711 36.4248 165.483 36.409C165.074 36.3636 164.677 36.189 164.679 35.6504V29.1526C164.679 28.4533 165.121 28.4175 165.591 28.4175H165.851V28.1503C165.23 28.1538 164.619 28.2 163.992 28.2C163.34 28.2 162.703 28.1538 162.057 28.1503V28.4175H162.177C162.627 28.4175 163.177 28.496 163.177 29.1892V35.6626C163.177 36.4772 162.629 36.5618 162.177 36.5618H162.057V36.8281C163.146 36.8272 164.234 36.7801 165.328 36.7801C166.422 36.7801 167.515 36.8272 168.604 36.8282Z" fill="#211E1F"/>
<path d="M168.963 27.7375C169.722 27.7375 170.289 28.3207 170.289 29.068C170.289 29.8118 169.722 30.3897 168.963 30.3897C168.205 30.3897 167.637 29.8118 167.637 29.068C167.637 28.3207 168.205 27.7375 168.963 27.7375ZM168.963 30.1426C169.556 30.1426 170.012 29.6363 170.012 29.068C170.012 28.4961 169.563 27.9854 168.963 27.9854C168.367 27.9854 167.911 28.4962 167.911 29.068C167.911 29.6363 168.367 30.1426 168.963 30.1426ZM168.303 29.7664V29.7009C168.466 29.6782 168.496 29.6834 168.496 29.5822V28.6009C168.496 28.463 168.481 28.4159 168.309 28.4228V28.3556H168.988C169.222 28.3556 169.436 28.4665 169.436 28.7074C169.436 28.9047 169.305 29.0505 169.122 29.1072L169.34 29.411C169.442 29.5489 169.556 29.6782 169.632 29.7235V29.7663H169.374C169.25 29.7663 169.141 29.5053 168.897 29.1552H168.75V29.5961C168.75 29.6834 168.781 29.6781 168.944 29.7008V29.7663H168.303V29.7664ZM168.75 29.068H168.907C169.078 29.068 169.158 28.9379 169.158 28.7292C169.158 28.518 169.034 28.4437 168.898 28.4437H168.75V29.068Z" fill="#211E1F"/>
<path d="M33.0235 44C45.0493 44.0575 56.0257 34.1924 56.0257 22.1912C56.0257 9.06711 45.0493 -0.00439402 33.0235 -2.8943e-05H22.6739C10.504 -0.00439402 0.487061 9.06982 0.487061 22.1912C0.487061 34.195 10.504 44.0576 22.6739 44H33.0235Z" fill="#0079BE"/>
<path d="M22.7227 1.81851C11.6023 1.822 2.591 10.8359 2.58838 21.9608C2.591 33.0838 11.6022 42.0968 22.7227 42.1003C33.8458 42.0968 42.8589 33.0838 42.8605 21.9608C42.8589 10.8359 33.8458 1.822 22.7227 1.81851ZM9.96013 21.9608C9.9706 16.5246 13.3658 11.8888 18.1534 10.0467V33.8722C13.3658 32.0311 9.97051 27.3979 9.96013 21.9608ZM27.2904 33.8774V10.0459C32.0797 11.8836 35.4801 16.5219 35.4889 21.9608C35.4801 27.4014 32.0797 32.0362 27.2904 33.8774Z" fill="white"/>
<path d="M63.0781 9.46618C63.0781 7.38482 61.9929 7.52189 60.9522 7.49927V6.89777C61.8541 6.94229 62.7786 6.94229 63.6822 6.94229C64.6539 6.94229 65.973 6.89777 67.6858 6.89777C73.6764 6.89777 76.9389 10.8997 76.9389 14.9975C76.9389 17.2892 75.598 23.0502 67.4073 23.0502C66.2279 23.0502 65.1392 23.0047 64.0523 23.0047C63.0117 23.0047 61.9929 23.0275 60.9521 23.0502V22.4496C62.3395 22.3098 63.0117 22.2636 63.078 20.6896V9.46618H63.0781ZM65.3462 20.3203C65.3462 22.1021 66.6199 22.3099 67.7531 22.3099C72.752 22.3099 74.3933 18.5376 74.3933 15.0892C74.3933 10.7634 71.6162 7.63974 67.1517 7.63974C66.2019 7.63974 65.7653 7.70784 65.3463 7.73237L65.3462 20.3203Z" fill="#211E1F"/>
<path d="M77.7507 22.4497H78.189C78.8359 22.4497 79.2996 22.4497 79.2996 21.6839V15.414C79.2996 14.3971 78.9529 14.2555 78.0965 13.7955V13.4244C79.1834 13.0979 80.4808 12.6614 80.5715 12.5916C80.7348 12.499 80.8727 12.4746 80.9888 12.4746C81.1033 12.4746 81.1512 12.6143 81.1512 12.8002V21.6839C81.1512 22.4497 81.6602 22.4497 82.308 22.4497H82.7008V23.0512C81.9133 23.0512 81.1032 23.005 80.2721 23.005C79.4392 23.005 78.6055 23.0277 77.7508 23.0512V22.4497H77.7507ZM80.2257 8.91172C79.6234 8.91172 79.0926 8.35657 79.0926 7.75497C79.0926 7.17529 79.6479 6.64188 80.2257 6.64188C80.8255 6.64188 81.3598 7.12998 81.3598 7.75497C81.3598 8.38005 80.8492 8.91172 80.2257 8.91172Z" fill="#211E1F"/>
<path d="M84.899 15.552C84.899 14.6964 84.6431 14.466 83.5581 14.026V13.5869C84.5524 13.263 85.4998 12.9618 86.6109 12.4747C86.68 12.4747 86.748 12.5218 86.748 12.706V14.211C88.069 13.263 89.203 12.4746 90.7551 12.4746C92.7194 12.4746 93.4134 13.9098 93.4134 15.7143V21.6841C93.4134 22.4497 93.9223 22.4497 94.571 22.4497H94.9875V23.0512C94.1755 23.0512 93.3663 23.005 92.5352 23.005C91.7014 23.005 90.8676 23.0277 90.0357 23.0512V22.4497H90.4512C91.1007 22.4497 91.5609 22.4497 91.5609 21.6841V15.6925C91.5609 14.3716 90.7551 13.7247 89.4342 13.7247C88.6948 13.7247 87.5144 14.3263 86.7479 14.836V21.6839C86.7479 22.4496 87.2594 22.4496 87.9082 22.4496H88.3238V23.0511C87.5144 23.0511 86.7034 23.0048 85.8706 23.0048C85.0385 23.0048 84.204 23.0276 83.3719 23.0511V22.4496H83.7893C84.437 22.4496 84.8989 22.4496 84.8989 21.6839V15.552H84.899Z" fill="#211E1F"/>
<path d="M96.7465 16.6642C96.6984 16.8729 96.6984 17.2194 96.7465 18.0068C96.8828 20.2042 98.2978 22.0088 100.146 22.0088C101.42 22.0088 102.417 21.3148 103.271 20.4592L103.594 20.784C102.529 22.1948 101.211 23.3977 99.3148 23.3977C95.6351 23.3977 94.8947 19.8332 94.8947 18.3535C94.8947 13.8172 97.9485 12.4745 99.567 12.4745C101.442 12.4745 103.456 13.6541 103.478 16.1072C103.478 16.2477 103.478 16.3848 103.456 16.5253L103.247 16.6642H96.7465ZM100.843 15.923C101.42 15.923 101.488 15.6219 101.488 15.3451C101.488 14.1647 100.771 13.2157 99.4747 13.2157C98.0648 13.2157 97.093 14.2555 96.8154 15.923H100.843Z" fill="#211E1F"/>
<path d="M104.011 22.4497H104.636C105.282 22.4497 105.745 22.4497 105.745 21.684V15.1826C105.745 14.4659 104.89 14.3262 104.542 14.1411V13.7954C106.231 13.0769 107.157 12.4745 107.368 12.4745C107.505 12.4745 107.573 12.5444 107.573 12.7766V14.8588H107.622C108.199 13.9569 109.172 12.4745 110.582 12.4745C111.161 12.4745 111.9 12.8674 111.9 13.7011C111.9 14.3262 111.462 14.8832 110.814 14.8832C110.094 14.8832 110.094 14.3262 109.286 14.3262C108.892 14.3262 107.597 14.8588 107.597 16.2477V21.684C107.597 22.4496 108.059 22.4496 108.708 22.4496H110.002V23.0512C108.73 23.0276 107.761 23.005 106.764 23.005C105.816 23.005 104.844 23.0276 104.011 23.0512V22.4497H104.011Z" fill="#211E1F"/>
<path d="M112.919 19.8332C113.221 21.3609 114.145 22.6575 115.835 22.6575C117.197 22.6575 117.707 21.8246 117.707 21.0145C117.707 18.2837 112.664 19.1628 112.664 15.4376C112.664 14.1412 113.707 12.4746 116.251 12.4746C116.99 12.4746 117.984 12.6841 118.886 13.1477L119.05 15.5058H118.517C118.287 14.0495 117.477 13.2159 115.995 13.2159C115.069 13.2159 114.191 13.7485 114.191 14.7428C114.191 17.4526 119.559 16.6172 119.559 20.2498C119.559 21.7767 118.332 23.3979 115.578 23.3979C114.653 23.3979 113.566 23.074 112.757 22.6122L112.502 19.9504L112.919 19.8332Z" fill="#211E1F"/>
<path d="M140.451 11.0864H139.873C139.434 8.38006 137.513 7.29141 134.923 7.29141C132.26 7.29141 128.396 9.07228 128.396 14.6256C128.396 19.3032 131.73 22.6573 135.292 22.6573C137.582 22.6573 139.481 21.0841 139.943 18.6537L140.474 18.7916L139.943 22.1701C138.972 22.7734 136.357 23.3977 134.828 23.3977C129.416 23.3977 125.992 19.9031 125.992 14.6963C125.992 9.95236 130.226 6.54935 134.76 6.54935C136.634 6.54935 138.438 7.15347 140.22 7.77855L140.451 11.0864Z" fill="#211E1F"/>
<path d="M141.285 22.4497H141.724C142.372 22.4497 142.837 22.4497 142.837 21.684V8.79664C142.837 7.29156 142.489 7.2452 141.609 6.99116V6.621C142.535 6.32077 143.506 5.90338 143.993 5.62497C144.245 5.48704 144.432 5.36996 144.5 5.36996C144.641 5.36996 144.687 5.50973 144.687 5.6956V21.684C144.687 22.4497 145.195 22.4497 145.844 22.4497H146.234V23.0512C145.451 23.0512 144.641 23.005 143.807 23.005C142.975 23.005 142.143 23.0278 141.285 23.0512V22.4497H141.285Z" fill="#211E1F"/>
<path d="M156.141 21.7765C156.141 22.1947 156.394 22.2174 156.787 22.2174C157.066 22.2174 157.412 22.1947 157.713 22.1947V22.6819C156.718 22.7735 154.82 23.2598 154.38 23.3977L154.264 23.3278V21.4553C152.878 22.5884 151.812 23.3977 150.168 23.3977C148.919 23.3977 147.623 22.5884 147.623 20.6459V14.7199C147.623 14.1184 147.532 13.5395 146.238 13.4243V12.9843C147.072 12.9616 148.919 12.8227 149.221 12.8227C149.478 12.8227 149.478 12.9843 149.478 13.4933V19.462C149.478 20.1579 149.478 22.1474 151.489 22.1474C152.276 22.1474 153.316 21.5459 154.287 20.7384V14.5103C154.287 14.0493 153.177 13.7953 152.346 13.5629V13.1465C154.426 13.0068 155.724 12.8226 155.954 12.8226C156.141 12.8226 156.141 12.9841 156.141 13.2399V21.7765H156.141Z" fill="#211E1F"/>
<path d="M160.745 14.1412C161.669 13.3546 162.918 12.4747 164.192 12.4747C166.877 12.4747 168.494 14.8143 168.494 17.3346C168.494 20.3658 166.274 23.3977 162.964 23.3977C161.253 23.3977 160.351 22.8416 159.748 22.5884L159.055 23.1192L158.571 22.8661C158.776 21.5007 158.894 20.158 158.894 18.7472V8.79655C158.894 7.29156 158.545 7.2452 157.666 6.99116V6.621C158.594 6.32077 159.563 5.90338 160.05 5.62489C160.305 5.48695 160.489 5.36996 160.56 5.36996C160.698 5.36996 160.745 5.50973 160.745 5.6956V14.1412H160.745V14.1412ZM160.745 20.4348C160.745 21.3148 161.577 22.7972 163.127 22.7972C165.603 22.7972 166.644 20.3658 166.644 18.3056C166.644 15.807 164.748 13.7249 162.943 13.7249C162.085 13.7249 161.369 14.281 160.745 14.8143V20.4348H160.745Z" fill="#211E1F"/>
<path d="M60.9257 36.5052H61.1029C61.5551 36.5052 62.0335 36.4441 62.0335 35.7884V29.1919C62.0335 28.5353 61.5551 28.4734 61.1029 28.4734H60.9257V28.0954C61.4172 28.0954 62.1723 28.1452 62.7913 28.1452C63.4199 28.1452 64.1742 28.0954 64.7661 28.0954V28.4734H64.5888C64.1375 28.4734 63.6583 28.5354 63.6583 29.1919V35.7884C63.6583 36.4441 64.1375 36.5052 64.5888 36.5052H64.7661V36.885C64.1619 36.885 63.405 36.8352 62.7773 36.8352C62.1602 36.8352 61.4172 36.885 60.9257 36.885V36.5052Z" fill="#211E1F"/>
<path d="M64.7666 36.9383C64.1581 36.9383 63.4039 36.8877 62.777 36.8877C62.1615 36.8877 61.4213 36.9383 60.9262 36.9383H60.8722V36.8842V36.5061V36.4511H60.9262H61.1027C61.5592 36.4407 61.9748 36.404 61.9792 35.7885V29.1919C61.9748 28.5765 61.5593 28.5353 61.1027 28.5267H60.8722V28.4735V28.0396H60.9262C61.4213 28.0396 62.1756 28.0893 62.791 28.0893C63.4178 28.0893 64.1713 28.0396 64.7666 28.0396H64.8226V28.0972V28.5267H64.7666H64.5903C64.1337 28.5354 63.7154 28.5765 63.7129 29.1919V35.7885C63.7154 36.404 64.1336 36.4407 64.5903 36.4511H64.8225V36.5061V36.9383H64.7666ZM64.7125 36.8308V36.5619H64.5904C64.1408 36.5619 63.6056 36.4842 63.6029 35.7885V29.1919C63.6055 28.4961 64.1407 28.4176 64.5904 28.4176H64.7125V28.1504C64.1311 28.1504 63.4021 28.1993 62.791 28.1993C62.193 28.1993 61.4692 28.1539 60.9821 28.1504V28.4176H61.1026C61.5513 28.4176 62.0882 28.4961 62.0882 29.1919V35.7885C62.0882 36.4843 61.5513 36.5619 61.1026 36.5619H60.9821V36.8308C61.4692 36.8256 62.1807 36.7802 62.777 36.7802C63.3899 36.7802 64.1188 36.8273 64.7125 36.8308Z" fill="#211E1F"/>
<path d="M73.4155 34.403L73.4408 34.3785V29.6572C73.4408 28.6236 72.7224 28.4734 72.3452 28.4734H72.0675V28.0953C72.6603 28.0953 73.2391 28.1451 73.8301 28.1451C74.346 28.1451 74.8647 28.0953 75.3797 28.0953V28.4734H75.1912C74.6612 28.4734 74.0693 28.5737 74.0693 30.0719V35.8024C74.0693 36.2425 74.0823 36.6824 74.1443 37.0727H73.6651L67.183 29.845V35.0334C67.183 36.129 67.3951 36.5053 68.3659 36.5053H68.5788V36.885C68.0385 36.885 67.4981 36.8353 66.9559 36.8353C66.3911 36.8353 65.8115 36.885 65.244 36.885V36.5053H65.4204C66.289 36.5053 66.5528 35.915 66.5528 34.9085V29.605C66.5528 28.9004 65.9722 28.4735 65.4082 28.4735H65.2441V28.0955C65.7224 28.0955 66.2132 28.1452 66.6907 28.1452C67.0686 28.1452 67.4345 28.0955 67.8116 28.0955L73.4155 34.403Z" fill="#211E1F"/>
<path d="M74.1442 37.1277L73.6248 37.1084L67.236 29.9873V35.0333C67.2509 36.1281 67.4176 36.4389 68.3657 36.4511H68.6355V36.5052V36.9382H68.5796C68.0348 36.9382 67.4927 36.8876 66.9557 36.8876C66.3917 36.8876 65.8138 36.9382 65.2428 36.9382H65.1878V36.8841V36.4511H65.2428H65.42C66.252 36.4467 66.4895 35.9124 66.4991 34.9085V29.6058C66.4973 28.9353 65.9474 28.5285 65.4078 28.5267H65.1877V28.4708V28.0413H65.2427C65.7239 28.0413 66.217 28.0893 66.6893 28.0893C67.0639 28.0893 67.4289 28.0413 67.8531 28.0597L73.3862 34.2887V29.6582C73.3792 28.656 72.7115 28.5355 72.3447 28.5267H72.0112V28.4708V28.0413H72.0671C72.6617 28.0413 73.2413 28.0893 73.8297 28.0893C74.3422 28.0893 74.8581 28.0413 75.3785 28.0413H75.4335V28.0955V28.5266H75.3785H75.1908C74.6713 28.5416 74.1379 28.5869 74.1231 30.0719V35.8015C74.1231 36.2415 74.1362 36.6815 74.1974 37.063L74.2096 37.1276H74.1442V37.1277ZM73.6659 37.0167H74.0823C74.0256 36.6387 74.0159 36.2196 74.0159 35.8015V30.0719C74.0159 28.5607 74.6489 28.4176 75.191 28.4176H75.3237V28.1504C74.8278 28.1539 74.3302 28.1993 73.8301 28.1993C73.2539 28.1993 72.6934 28.1539 72.1233 28.1504L72.1225 28.4176H72.3451C72.7318 28.4176 73.4957 28.5904 73.4957 29.6581L73.4783 34.416L73.4529 34.4423L73.4102 34.4816L67.8115 28.1504C67.4379 28.1504 67.0729 28.1993 66.6897 28.1993C66.2279 28.1993 65.7556 28.1539 65.299 28.1504L65.2963 28.4175H65.4081C65.9991 28.4175 66.6059 28.8689 66.6059 29.6057V34.9084C66.6059 35.9149 66.3256 36.5592 65.4203 36.5627L65.299 36.5592V36.8307C65.8446 36.8254 66.4051 36.78 66.9559 36.78C67.4815 36.78 68.0044 36.8255 68.5247 36.8307V36.5627H68.3659C67.3749 36.5592 67.1288 36.128 67.1278 35.0331V29.7034L73.6659 37.0167ZM73.4152 34.402L73.4554 34.3654L73.4152 34.402ZM73.3864 34.3777V34.3733L73.3759 34.3645L73.3864 34.3777Z" fill="#211E1F"/>
<path d="M77.2642 28.7239C76.3187 28.7239 76.2829 28.951 76.0943 29.8693H75.7163C75.7661 29.5175 75.8289 29.1657 75.8673 28.799C75.9179 28.4463 75.9423 28.0953 75.9423 27.7304H76.2453C76.3465 28.1085 76.6609 28.0954 77.0023 28.0954H83.4966C83.837 28.0954 84.1514 28.0831 84.1776 27.7043L84.4778 27.755C84.4289 28.0954 84.3783 28.4351 84.3399 28.7754C84.3172 29.1151 84.3172 29.4555 84.3172 29.7943L83.9383 29.9348C83.9121 29.4695 83.8492 28.7239 83.0068 28.7239H80.9421V35.4235C80.9421 36.3943 81.3831 36.5052 81.9853 36.5052H82.2254V36.885C81.7348 36.885 80.8523 36.8352 80.1738 36.8352C79.4188 36.8352 78.5361 36.885 78.0446 36.885V36.5052H78.2846C78.9787 36.5052 79.3296 36.4431 79.3296 35.4497V28.7239H77.2642Z" fill="#211E1F"/>
<path d="M82.2276 36.9382C81.7316 36.9382 80.8508 36.8876 80.1742 36.8876C79.4199 36.8876 78.5391 36.9382 78.0449 36.9382H77.9925V36.885V36.4511H78.0449H78.285C78.979 36.4345 79.2583 36.4258 79.2741 35.4497V28.779H77.2644V28.7239V28.6681H79.3833V35.4497C79.3833 36.4597 78.9765 36.5619 78.285 36.5628H78.1V36.8281C78.5967 36.8256 79.4435 36.7801 80.1743 36.7801C80.8308 36.7801 81.6723 36.8256 82.17 36.8281V36.5628H81.9858C81.3773 36.5619 80.8875 36.4126 80.8875 35.4235V28.6681H83.0072C83.8523 28.6716 83.9623 29.3901 83.9902 29.8571L84.2617 29.7567C84.2617 29.4285 84.2635 29.0993 84.2862 28.7676C84.3228 28.4437 84.3691 28.1224 84.4162 27.8012L84.2241 27.7689C84.1657 28.1355 83.812 28.1539 83.4951 28.1504H77.0025H76.937C76.6411 28.1504 76.3172 28.1364 76.2046 27.7847H75.9968C75.9949 28.133 75.9705 28.4709 75.9225 28.806C75.8858 29.1518 75.8282 29.4844 75.7811 29.817H76.0509C76.2167 28.9396 76.325 28.655 77.2643 28.6682V28.724V28.779C76.3337 28.7956 76.353 28.9528 76.1477 29.8834L76.1382 29.9262H76.0946H75.6537L75.6607 29.8607C75.7113 29.508 75.7751 29.157 75.8126 28.7903C75.865 28.4411 75.8894 28.0919 75.8894 27.7305V27.6754H75.9427H76.2884L76.2971 27.7147C76.3835 28.0325 76.6166 28.0343 76.937 28.0395H77.0025H83.4951C83.8462 28.0343 84.101 28.029 84.1228 27.6998L84.1281 27.6404L84.1848 27.6527L84.5401 27.7086L84.5322 27.7636C84.4815 28.1006 84.4319 28.4411 84.3952 28.7789C84.3699 29.1142 84.3699 29.4547 84.3699 29.7943V29.8335L84.335 29.8475L83.8888 30.0098L83.8854 29.9365C83.8522 29.4633 83.8024 28.7789 83.0071 28.7789H80.9974V35.4234C81.0088 36.3732 81.3858 36.4387 81.9856 36.4509H82.2807V36.505V36.9381L82.2276 36.9382Z" fill="#211E1F"/>
<path d="M84.8806 36.5052H85.0578C85.5101 36.5052 85.9893 36.4441 85.9893 35.7884V29.1919C85.9893 28.5353 85.5101 28.4734 85.0578 28.4734H84.8806V28.0954C85.6471 28.0954 86.9585 28.1452 88.0138 28.1452C89.0737 28.1452 90.3806 28.0954 91.2361 28.0954C91.2153 28.6358 91.2266 29.4687 91.264 30.0214L90.8843 30.1225C90.8241 29.3046 90.673 28.6507 89.3504 28.6507H87.6018V31.9481H89.0982C89.8532 31.9481 90.0183 31.5212 90.0925 30.8395H90.4697C90.4453 31.3326 90.4321 31.8233 90.4321 32.314C90.4321 32.7933 90.4452 33.2708 90.4697 33.7492L90.0925 33.8242C90.0183 33.0691 89.98 32.5784 89.1104 32.5784H87.6019V35.5109C87.6019 36.3306 88.3291 36.3306 89.1358 36.3306C90.6469 36.3306 91.313 36.2285 91.6911 34.795L92.0439 34.8814C91.8788 35.5502 91.7286 36.2163 91.6169 36.885C90.8102 36.885 89.3619 36.8352 88.2304 36.8352C87.0955 36.8352 85.5984 36.885 84.8806 36.885V36.5052Z" fill="#211E1F"/>
<path d="M91.6156 36.9382C90.8072 36.9382 89.3598 36.8866 88.2293 36.8866C87.0952 36.8866 85.5988 36.9382 84.8803 36.9382H84.8271V36.885V36.5052V36.4511H84.8803H85.0568C85.5133 36.4441 85.9271 36.4039 85.9333 35.7885V29.1919C85.9272 28.5773 85.5133 28.5362 85.0568 28.5266H84.8271V28.4735V28.0413H84.8803C85.6486 28.0413 86.9581 28.0893 88.0136 28.0893C89.0725 28.0893 90.3786 28.0413 91.2359 28.0413H91.2926L91.2899 28.0972C91.2812 28.2866 91.2778 28.51 91.2778 28.7476C91.2778 29.1831 91.2899 29.6589 91.3153 30.0178L91.3171 30.0632L91.2752 30.0755L90.8325 30.1908L90.83 30.1262C90.7558 29.309 90.6467 28.7162 89.3503 28.704H87.6541L87.6522 31.8914H89.098C89.8227 31.8844 89.9526 31.5134 90.0383 30.8351L90.0427 30.7853H90.0915H90.5255L90.5246 30.842C90.5003 31.3326 90.4844 31.8232 90.4844 32.3139C90.4844 32.7905 90.5003 33.2681 90.5246 33.7474L90.5255 33.792L90.4801 33.8024L90.0427 33.8897L90.0383 33.8303C89.9518 33.062 89.9456 32.6412 89.1093 32.6317L87.654 32.6308V35.5108C87.655 36.2756 88.3148 36.2712 89.1356 36.2756C90.651 36.2669 91.2587 36.1936 91.6385 34.7793L91.6508 34.7286L91.704 34.7382L92.1074 34.842L92.0951 34.8945C91.9328 35.5615 91.7817 36.2267 91.669 36.8936L91.6586 36.9382H91.6156ZM91.5694 36.8282C91.6786 36.1935 91.8225 35.5562 91.9771 34.9223L91.7283 34.8595C91.3512 36.2686 90.6212 36.3942 89.1354 36.3847C88.3427 36.3847 87.5483 36.3847 87.5447 35.5108V32.5233H89.1093C89.9882 32.5137 90.0783 33.0445 90.1402 33.7612L90.4127 33.7046C90.3882 33.2409 90.3769 32.7756 90.3769 32.3138C90.3769 31.8397 90.3882 31.3684 90.4127 30.8943H90.1402C90.0705 31.5499 89.8652 32.0108 89.0979 32.0021H87.5448V28.5939H89.3503C90.6599 28.585 90.8771 29.2608 90.933 30.0527L91.2046 29.9793C91.1828 29.624 91.1678 29.1683 91.1678 28.7475C91.1678 28.5319 91.1731 28.3285 91.1801 28.1504C90.3246 28.1539 89.0499 28.1993 88.0137 28.1993C86.9791 28.1993 85.7055 28.1539 84.9345 28.1504V28.4175H85.0567C85.5054 28.4175 86.0415 28.4961 86.0432 29.1919V35.7885C86.0414 36.4825 85.5054 36.5593 85.0567 36.5628H84.9345V36.8282C85.6688 36.8273 87.1233 36.7802 88.2292 36.7802C89.3397 36.7802 90.7575 36.8273 91.5694 36.8282Z" fill="#211E1F"/>
<path d="M93.7427 29.4294C93.7427 28.511 93.2398 28.4734 92.8478 28.4734H92.6217V28.0945C93.025 28.0945 93.8046 28.1452 94.5729 28.1452C95.3281 28.1452 95.933 28.0945 96.5992 28.0945C98.1845 28.0945 99.5963 28.5232 99.5963 30.3129C99.5963 31.4434 98.8412 32.1366 97.8467 32.5286L99.9987 35.75C100.351 36.2826 100.602 36.4318 101.22 36.5051V36.8849C100.804 36.8849 100.401 36.8352 99.9864 36.8352C99.5962 36.8352 99.1919 36.8849 98.8034 36.8849C97.8343 35.613 97.0015 34.2528 96.1834 32.8036H95.3551V35.4995C95.3551 36.4703 95.8065 36.5052 96.3852 36.5052H96.6122V36.885C95.8928 36.885 95.1658 36.8353 94.4472 36.8353C93.8422 36.8353 93.2502 36.885 92.6217 36.885V36.5052H92.8478C93.3157 36.5052 93.7427 36.2939 93.7427 35.8268V29.4294ZM95.3549 32.3505H95.9696C97.2294 32.3505 97.9076 31.8722 97.9076 30.3862C97.9076 29.267 97.191 28.5485 96.0691 28.5485C95.6911 28.5485 95.5305 28.5878 95.3548 28.5991V32.3505H95.3549Z" fill="#211E1F"/>
<path d="M101.22 36.9383C100.798 36.9383 100.398 36.8876 99.9838 36.8876C99.5997 36.8876 99.1981 36.9383 98.7591 36.9173C97.7934 35.6506 96.9658 34.2983 96.1522 32.8595H95.4084V35.4979C95.4215 36.4451 95.8021 36.4372 96.3844 36.4512H96.6664V36.5053V36.9384H96.6104C95.8911 36.9384 95.1604 36.8877 94.4454 36.8877C93.8438 36.8877 93.2538 36.9384 92.6216 36.9384H92.5665V36.8842V36.4512H92.6216H92.8477C93.3016 36.4486 93.6841 36.2513 93.6858 35.827V29.4296C93.6763 28.5357 93.2389 28.5408 92.8477 28.5278H92.5665V28.4737V28.0398H92.6216C93.0293 28.0398 93.8063 28.0895 94.5728 28.0895C95.3244 28.0895 95.9296 28.0398 96.6 28.0398C98.1863 28.0433 99.6477 28.4815 99.652 30.3096C99.652 31.4472 98.9004 32.1568 97.9287 32.5533L100.044 35.7205C100.396 36.2426 100.615 36.3727 101.228 36.4512L101.274 36.4582V36.5053V36.9384H101.22V36.9383ZM95.3535 32.7495H96.2142L96.229 32.7774C97.0496 34.224 97.8763 35.5824 98.8035 36.8308C99.1877 36.8308 99.5918 36.7793 99.9838 36.7793C100.386 36.7793 100.774 36.8229 101.166 36.8291V36.5532C100.575 36.4798 100.298 36.3035 99.9542 35.7806L97.7638 32.5023L97.8257 32.477C98.8105 32.0895 99.5395 31.4164 99.5404 30.3093C99.5395 28.5624 98.1827 28.1574 96.6 28.1504C95.9356 28.1504 95.3315 28.2002 94.5728 28.2002C93.8335 28.2002 93.0869 28.1539 92.6749 28.1504V28.4175H92.8477C93.2388 28.4185 93.7957 28.483 93.7957 29.4295V35.8268C93.7957 36.3323 93.3217 36.5628 92.8477 36.5637H92.6749V36.829C93.2808 36.8272 93.8543 36.7793 94.4454 36.7793C95.1498 36.7793 95.8596 36.8273 96.5564 36.829V36.5637H96.3843C95.8099 36.5627 95.2984 36.4912 95.2984 35.4977V32.7495H95.3533H95.3535ZM95.3535 32.4037H95.2984V28.5485L95.3463 28.5441C95.5184 28.5311 95.6887 28.4952 96.0692 28.4952C97.2165 28.4952 97.9619 29.2408 97.9636 30.3887C97.9602 31.8921 97.2391 32.4028 95.9696 32.4037H95.3535V32.4037ZM95.9696 32.2956C97.2162 32.285 97.8432 31.8521 97.8563 30.3888C97.8493 29.2888 97.1657 28.6061 96.0692 28.6018C95.7287 28.6018 95.5689 28.6332 95.4083 28.6472V32.2956H95.9696Z" fill="#211E1F"/>
<path d="M109.768 34.403L109.79 34.3785V29.6572C109.79 28.6236 109.074 28.4734 108.697 28.4734H108.421V28.0953C109.012 28.0953 109.59 28.1451 110.183 28.1451C110.699 28.1451 111.214 28.0953 111.733 28.0953V28.4734H111.544C111.015 28.4734 110.423 28.5737 110.423 30.0719V35.8024C110.423 36.2425 110.435 36.6824 110.497 37.0727H110.019L103.536 29.845V35.0334C103.536 36.129 103.75 36.5053 104.719 36.5053H104.933V36.885C104.393 36.885 103.851 36.8353 103.31 36.8353C102.742 36.8353 102.163 36.885 101.597 36.885V36.5053H101.772C102.642 36.5053 102.906 35.915 102.906 34.9085V29.605C102.906 28.9004 102.327 28.4735 101.762 28.4735H101.597V28.0955C102.074 28.0955 102.567 28.1452 103.045 28.1452C103.42 28.1452 103.787 28.0955 104.165 28.0955L109.768 34.403Z" fill="#211E1F"/>
<path d="M110.497 37.1267L109.979 37.1093L103.589 29.9873V35.0325C103.604 36.1281 103.77 36.4388 104.72 36.4511H104.986V36.5052V36.9383H104.931C104.386 36.9383 103.847 36.8867 103.307 36.8867C102.745 36.8867 102.163 36.9383 101.597 36.9383H101.54V36.885V36.4511H101.597H101.772C102.603 36.4476 102.841 35.9125 102.849 34.905V29.6049C102.848 28.9344 102.299 28.5276 101.761 28.5267H101.54V28.4735V28.0396H101.597C102.077 28.0396 102.57 28.0893 103.044 28.0893C103.415 28.0893 103.779 28.0396 104.202 28.057L109.736 34.2887V29.6564C109.733 28.6559 109.062 28.5319 108.696 28.5268H108.364V28.4735V28.0396H108.419C109.014 28.0396 109.594 28.0893 110.182 28.0893C110.696 28.0893 111.212 28.0396 111.73 28.0396H111.785V28.0964V28.5268H111.73H111.543C111.024 28.5407 110.488 28.5869 110.475 30.072V35.8015C110.475 36.2415 110.487 36.678 110.551 37.0656L110.558 37.1267H110.497ZM110.019 37.0167H110.433C110.378 36.6387 110.365 36.2197 110.365 35.8015V30.0719C110.366 28.5606 111.004 28.421 111.543 28.4167H111.675V28.1504C111.181 28.1539 110.682 28.1993 110.182 28.1993C109.604 28.1993 109.043 28.1539 108.473 28.1504V28.4167H108.696C109.084 28.421 109.847 28.5904 109.847 29.6564L109.83 34.416L109.805 34.4422L109.767 34.4824L104.164 28.1505C103.79 28.1505 103.425 28.1994 103.044 28.1994C102.578 28.1994 102.108 28.154 101.649 28.1505V28.4168H101.761C102.352 28.4211 102.959 28.8672 102.959 29.6049V34.9049C102.959 35.9159 102.674 36.5593 101.772 36.5628L101.649 36.5619V36.8282C102.193 36.8256 102.755 36.7802 103.307 36.7802C103.835 36.7802 104.358 36.8256 104.879 36.8282V36.5628H104.72C103.728 36.5619 103.48 36.1281 103.478 35.0324V29.7052L110.019 37.0167ZM109.767 34.4021L109.806 34.3663L109.767 34.4021ZM109.736 34.3785V34.374L109.726 34.3645L109.736 34.3785Z" fill="#211E1F"/>
<path d="M113.758 35.0839C113.63 35.5108 113.478 35.8408 113.478 36.0651C113.478 36.444 114.008 36.5051 114.422 36.5051H114.563V36.8849C114.058 36.8578 113.544 36.8351 113.037 36.8351C112.584 36.8351 112.133 36.8579 111.679 36.8849V36.5051H111.755C112.245 36.5051 112.662 36.2161 112.848 35.6863L114.865 29.9086C115.027 29.4424 115.256 28.8129 115.332 28.3459C115.733 28.2089 116.237 27.9575 116.476 27.8055C116.515 27.7925 116.537 27.7794 116.576 27.7794C116.613 27.7794 116.638 27.7794 116.666 27.8186C116.702 27.9182 116.739 28.0325 116.779 28.1329L119.095 34.719C119.246 35.159 119.396 35.6243 119.559 36.0032C119.711 36.3559 119.976 36.5051 120.393 36.5051H120.467V36.8849C119.9 36.8578 119.333 36.8352 118.731 36.8352C118.113 36.8352 117.482 36.8579 116.84 36.8849V36.5051H116.98C117.268 36.5051 117.761 36.4563 117.761 36.1411C117.761 35.9778 117.647 35.6382 117.507 35.234L117.017 33.7735H114.159L113.758 35.0839ZM115.594 29.5053H115.569L114.398 33.069H116.751L115.594 29.5053Z" fill="#211E1F"/>
<path d="M120.463 36.9383C119.896 36.913 119.33 36.8867 118.73 36.8867C118.113 36.8867 117.486 36.913 116.842 36.9383L116.785 36.9418V36.885V36.4494H116.84H116.979C117.27 36.4494 117.703 36.383 117.703 36.1413C117.707 35.998 117.593 35.6523 117.454 35.2517L116.975 33.8278H114.198L113.807 35.0997C113.68 35.5292 113.529 35.8618 113.529 36.067C113.534 36.3744 114.004 36.4494 114.422 36.4494H114.616V36.5061V36.9418L114.559 36.9383C114.055 36.913 113.541 36.8867 113.039 36.8867C112.588 36.8867 112.134 36.913 111.682 36.9383L111.624 36.9418V36.885V36.4494H111.679H111.754C112.223 36.4476 112.614 36.1815 112.795 35.669L114.811 29.8905C114.976 29.4234 115.203 28.7957 115.312 28.2938C115.707 28.1602 116.212 27.907 116.455 27.7534C116.49 27.742 116.525 27.7245 116.576 27.7245C116.607 27.7237 116.675 27.7315 116.715 27.798C116.751 27.9018 116.79 28.0136 116.829 28.1157L119.148 34.701C119.296 35.1427 119.446 35.6081 119.61 35.9799C119.756 36.3161 119.987 36.4478 120.392 36.4496H120.521V36.5063V36.9419L120.463 36.9383ZM116.895 36.8257C117.518 36.8038 118.129 36.7794 118.73 36.7794C119.315 36.7794 119.862 36.8038 120.41 36.8257V36.5628H120.392C119.961 36.5654 119.663 36.3961 119.509 36.0251C119.345 35.6427 119.191 35.1757 119.043 34.7348L116.726 28.1505C116.687 28.0501 116.651 27.9357 116.617 27.8467C116.607 27.8345 116.609 27.8345 116.599 27.8345H116.576C116.55 27.8345 116.535 27.8423 116.503 27.851C116.26 28.0091 115.755 28.2561 115.382 28.3548C115.304 28.8314 115.078 29.46 114.914 29.9262L112.899 35.7056C112.707 36.2521 112.266 36.5637 111.754 36.5628H111.734V36.8257C112.165 36.8038 112.601 36.7794 113.039 36.7794C113.525 36.7794 114.023 36.8038 114.503 36.8257V36.5628H114.422C114.012 36.5575 113.439 36.5113 113.424 36.0669C113.425 35.8155 113.579 35.4934 113.702 35.0683L113.757 35.0848L113.702 35.0664L114.117 33.7202H117.052L117.557 35.2167C117.699 35.6209 117.813 35.9561 117.813 36.1412C117.796 36.528 117.264 36.555 116.979 36.5629H116.895V36.8257H116.895ZM114.321 33.1231L115.527 29.4503H115.569H115.595V29.5053L115.581 29.5079L115.595 29.5053V29.4503H115.633L116.828 33.1231H114.321ZM114.472 33.014H116.676L115.58 29.6398L114.472 33.014ZM115.54 29.5211L115.569 29.5115L115.54 29.5211Z" fill="#211E1F"/>
<path d="M121.02 28.7239C120.076 28.7239 120.038 28.951 119.848 29.8693H119.47C119.52 29.5175 119.584 29.1657 119.623 28.799C119.674 28.4463 119.697 28.0953 119.697 27.7304H120C120.101 28.1085 120.417 28.0954 120.755 28.0954H127.253C127.591 28.0954 127.905 28.0831 127.931 27.7043L128.232 27.755C128.184 28.0954 128.134 28.4351 128.096 28.7754C128.069 29.1151 128.069 29.4555 128.069 29.7943L127.692 29.9348C127.668 29.4695 127.605 28.7239 126.761 28.7239H124.696V35.4235C124.696 36.3943 125.138 36.5052 125.741 36.5052H125.98V36.885C125.489 36.885 124.609 36.8352 123.928 36.8352C123.174 36.8352 122.291 36.885 121.801 36.885V36.5052H122.039C122.733 36.5052 123.086 36.4431 123.086 35.4497V28.7239H121.02Z" fill="#211E1F"/>
<path d="M125.98 36.9383C125.486 36.9383 124.604 36.8877 123.928 36.8877C123.176 36.8877 122.294 36.9383 121.801 36.9383H121.745V36.8851V36.4512H121.801H122.039C122.733 36.4346 123.012 36.4259 123.029 35.4498L123.027 28.7791H121.02V28.724V28.6682H123.138V35.4498C123.138 36.4598 122.73 36.5594 122.039 36.562H121.854V36.8309C122.352 36.8255 123.197 36.7802 123.928 36.7802C124.586 36.7802 125.427 36.8257 125.925 36.8309V36.562H125.739C125.134 36.5594 124.643 36.4136 124.641 35.4236V28.6682H126.761C127.606 28.6717 127.717 29.3901 127.741 29.8572L128.016 29.7568C128.016 29.4286 128.017 29.0994 128.041 28.7694C128.076 28.4455 128.123 28.1225 128.169 27.8012L127.979 27.7689C127.921 28.1355 127.566 28.1557 127.253 28.1504H120.755H120.691C120.394 28.1539 120.073 28.1364 119.958 27.7828H119.752C119.749 28.132 119.725 28.4709 119.676 28.8061C119.642 29.1527 119.58 29.4862 119.533 29.8171H119.803C119.97 28.9396 120.079 28.655 121.02 28.6682V28.724V28.779C120.087 28.7948 120.108 28.9528 119.902 29.8834L119.892 29.9262H119.848H119.407L119.414 29.8632C119.467 29.508 119.53 29.157 119.566 28.7929C119.618 28.4411 119.642 28.0919 119.642 27.7305V27.6755H119.696H120.04L120.051 27.7147C120.139 28.0325 120.369 28.0343 120.691 28.0395L120.754 28.0413H127.252C127.6 28.0344 127.854 28.029 127.876 27.7009L127.879 27.6406L127.939 27.6529L128.296 27.7088L128.286 27.7638C128.235 28.1008 128.187 28.4413 128.148 28.7791C128.123 29.1144 128.123 29.4557 128.123 29.7944V29.8337L128.087 29.8477L127.641 30.0101L127.639 29.9367C127.606 29.4636 127.556 28.779 126.761 28.779H124.751V35.4236C124.764 36.3734 125.14 36.4389 125.739 36.4511H126.034V36.5052V36.9382L125.98 36.9383Z" fill="#211E1F"/>
<path d="M128.697 36.5052H128.873C129.328 36.5052 129.804 36.4441 129.804 35.7884V29.1919C129.804 28.5353 129.328 28.4734 128.873 28.4734H128.697V28.0954C129.189 28.0954 129.943 28.1452 130.558 28.1452C131.19 28.1452 131.946 28.0954 132.537 28.0954V28.4734H132.361C131.908 28.4734 131.428 28.5354 131.428 29.1919V35.7884C131.428 36.4441 131.908 36.5052 132.361 36.5052H132.537V36.885C131.932 36.885 131.176 36.8352 130.549 36.8352C129.931 36.8352 129.189 36.885 128.697 36.885V36.5052Z" fill="#211E1F"/>
<path d="M132.538 36.9382C131.929 36.9382 131.176 36.8866 130.548 36.8866C129.933 36.8866 129.189 36.9382 128.697 36.9382H128.642V36.885V36.5052V36.4511H128.697H128.874C129.329 36.4441 129.746 36.4048 129.748 35.7885V29.1919C129.746 28.5773 129.329 28.5353 128.874 28.5266H128.642V28.4735V28.0413H128.697C129.189 28.0413 129.945 28.0893 130.559 28.0893C131.186 28.0893 131.941 28.0413 132.538 28.0413H132.591V28.0954V28.5266H132.538H132.361C131.901 28.5354 131.488 28.5773 131.482 29.1919V35.7885C131.488 36.4048 131.901 36.4441 132.361 36.4511H132.591V36.5052V36.9382H132.538ZM132.481 36.8282V36.5619H132.361C131.91 36.5619 131.376 36.4825 131.376 35.7885V29.1919C131.376 28.4961 131.91 28.4175 132.361 28.4175H132.481V28.1504C131.9 28.1539 131.172 28.1993 130.559 28.1993C129.962 28.1993 129.24 28.1539 128.752 28.1504V28.4175H128.874C129.322 28.4175 129.858 28.4961 129.859 29.1919V35.7885C129.858 36.4824 129.322 36.5619 128.874 36.5619H128.752V36.8282C129.238 36.8229 129.95 36.7801 130.548 36.7801C131.158 36.7801 131.887 36.8256 132.481 36.8282H132.481Z" fill="#211E1F"/>
<path d="M137.558 27.9069C140.242 27.9069 142.381 29.5708 142.381 32.2519C142.381 35.1486 140.304 37.0735 137.624 37.0735C134.952 37.0735 132.915 35.2602 132.915 32.5531C132.915 29.9349 134.94 27.9069 137.558 27.9069ZM137.748 36.5192C140.191 36.5192 140.616 34.3646 140.616 32.5286C140.616 30.6883 139.625 28.4604 137.534 28.4604C135.33 28.4604 134.676 30.4246 134.676 32.1104C134.676 34.3646 135.708 36.5192 137.748 36.5192Z" fill="#211E1F"/>
<path d="M132.858 32.553C132.863 29.9043 134.913 27.8553 137.558 27.8518V27.9068V27.96C134.97 27.96 132.967 29.9619 132.965 32.5529C132.971 35.2296 134.98 37.0158 137.623 37.0166C140.277 37.0158 142.324 35.1178 142.329 32.2492C142.326 29.6022 140.219 27.9635 137.558 27.96V27.9068V27.8518C140.262 27.8536 142.43 29.5341 142.435 32.2492C142.433 35.1763 140.329 37.1215 137.623 37.1266C134.931 37.1214 132.863 35.2898 132.858 32.5529H132.858V32.553ZM134.622 32.1104C134.625 30.4168 135.287 28.4036 137.534 28.4036C139.671 28.4089 140.669 30.6787 140.673 32.5286C140.669 34.3645 140.237 36.5716 137.749 36.5716V36.5192V36.465C140.143 36.4616 140.557 34.3645 140.563 32.5286C140.563 30.7032 139.58 28.518 137.534 28.5153C135.374 28.5179 134.735 30.4333 134.731 32.1104C134.733 34.3532 135.755 36.4597 137.749 36.465V36.5192V36.5716C135.659 36.5689 134.625 34.3777 134.622 32.1104Z" fill="#211E1F"/>
<path d="M150.865 34.403L150.89 34.3785V29.6572C150.89 28.6236 150.171 28.4734 149.793 28.4734H149.52V28.0953C150.11 28.0953 150.689 28.1451 151.279 28.1451C151.797 28.1451 152.313 28.0953 152.83 28.0953V28.4734H152.64C152.112 28.4734 151.519 28.5737 151.519 30.0719V35.8024C151.519 36.2425 151.532 36.6824 151.595 37.0727H151.118L144.633 29.845V35.0334C144.633 36.129 144.846 36.5053 145.815 36.5053H146.031V36.885C145.489 36.885 144.948 36.8353 144.407 36.8353C143.84 36.8353 143.26 36.885 142.693 36.885V36.5053H142.87C143.741 36.5053 144.002 35.915 144.002 34.9085V29.605C144.002 28.9004 143.426 28.4735 142.857 28.4735H142.693V28.0955C143.172 28.0955 143.663 28.1452 144.141 28.1452C144.519 28.1452 144.883 28.0955 145.262 28.0955L150.865 34.403Z" fill="#211E1F"/>
<path d="M151.596 37.1267L151.075 37.1084L144.687 29.9872V35.0333C144.701 36.1281 144.868 36.438 145.813 36.4493H146.086V36.5061V36.9382H146.031C145.485 36.9382 144.945 36.8876 144.407 36.8876C143.842 36.8876 143.264 36.9382 142.692 36.9382H142.64V36.8841V36.4493H142.692H142.87C143.701 36.4468 143.939 35.9125 143.949 34.9085V29.6049C143.948 28.9344 143.398 28.5276 142.857 28.5267H142.64V28.4735V28.0413H142.692C143.175 28.0413 143.666 28.0894 144.141 28.0894C144.514 28.0894 144.878 28.0413 145.303 28.0597L150.835 34.2887V29.6582C150.831 28.6561 150.161 28.5355 149.793 28.5268H149.462V28.4736V28.0415H149.518C150.111 28.0415 150.692 28.0895 151.277 28.0895C151.794 28.0895 152.308 28.0415 152.83 28.0415H152.884V28.0955V28.5268H152.83H152.639C152.122 28.5416 151.586 28.5888 151.575 30.072V35.8016C151.575 36.2416 151.585 36.6807 151.646 37.0657L151.656 37.1268H151.596V37.1267ZM151.118 37.0167H151.53C151.475 36.6387 151.465 36.2196 151.465 35.8015V30.0719C151.465 28.5581 152.1 28.421 152.64 28.4166H152.776V28.1504C152.279 28.1539 151.782 28.1993 151.278 28.1993C150.705 28.1993 150.142 28.1539 149.572 28.1504V28.4166H149.793C150.183 28.421 150.943 28.5931 150.943 29.6581L150.929 34.416L150.905 34.4423L150.865 34.4823L145.262 28.1504C144.891 28.1504 144.523 28.1993 144.141 28.1993C143.677 28.1993 143.205 28.1539 142.747 28.1504V28.4167H142.858C143.449 28.4211 144.057 28.8672 144.057 29.6049V34.9085C144.057 35.9151 143.776 36.5593 142.871 36.5628L142.747 36.5619V36.8282C143.293 36.8256 143.854 36.7802 144.407 36.7802C144.932 36.7802 145.453 36.8256 145.976 36.8282V36.5628H145.814C144.826 36.5619 144.579 36.1281 144.579 35.0332V29.7035L151.118 37.0167ZM150.865 34.402L150.905 34.3662L150.865 34.402ZM150.835 34.3785V34.374L150.825 34.3645L150.835 34.3785Z" fill="#211E1F"/>
<path d="M154.853 35.0839C154.73 35.5108 154.577 35.8408 154.577 36.0651C154.577 36.444 155.107 36.5051 155.52 36.5051H155.661V36.8849C155.157 36.8578 154.64 36.8351 154.136 36.8351C153.681 36.8351 153.23 36.8579 152.779 36.8849V36.5051H152.85C153.344 36.5051 153.761 36.2161 153.947 35.6863L155.964 29.9086C156.126 29.4424 156.354 28.8129 156.427 28.3459C156.83 28.2089 157.333 27.9575 157.575 27.8055C157.611 27.7925 157.636 27.7794 157.675 27.7794C157.712 27.7794 157.736 27.7794 157.761 27.8186C157.799 27.9182 157.839 28.0325 157.876 28.1329L160.192 34.719C160.343 35.159 160.493 35.6243 160.659 36.0032C160.81 36.3559 161.075 36.5051 161.489 36.5051H161.566V36.8849C160.998 36.8578 160.432 36.8352 159.827 36.8352C159.211 36.8352 158.581 36.8579 157.938 36.8849V36.5051H158.078C158.365 36.5051 158.859 36.4563 158.859 36.1411C158.859 35.9778 158.745 35.6382 158.604 35.234L158.116 33.7735H155.257L154.853 35.0839ZM156.693 29.5053H156.668L155.496 33.069H157.852L156.693 29.5053Z" fill="#211E1F"/>
<path d="M161.56 36.9382C160.994 36.9155 160.428 36.8876 159.826 36.8876C159.213 36.8876 158.582 36.9155 157.94 36.9382L157.884 36.9417V36.8841V36.4511H157.938H158.075C158.368 36.4511 158.802 36.383 158.803 36.1412C158.806 35.9979 158.692 35.6549 158.552 35.2515L158.073 33.8277H155.295L154.905 35.0996C154.78 35.5308 154.629 35.8617 154.632 36.0652C154.632 36.3742 155.103 36.4511 155.52 36.4511H155.712V36.5052V36.9417L155.656 36.9382C155.152 36.9155 154.637 36.8876 154.136 36.8876C153.685 36.8876 153.232 36.9155 152.778 36.9382L152.723 36.9417V36.8841V36.4511H152.778H152.85C153.32 36.4492 153.713 36.1796 153.896 35.6689L155.911 29.8904C156.071 29.4233 156.298 28.7956 156.41 28.2954C156.806 28.1583 157.311 27.9069 157.556 27.7531C157.589 27.7418 157.623 27.7269 157.674 27.7269C157.708 27.7234 157.772 27.7313 157.812 27.8003C157.85 27.899 157.886 28.0133 157.928 28.1154L160.244 34.7007C160.394 35.1424 160.545 35.6077 160.708 35.9823C160.855 36.3158 161.085 36.4476 161.487 36.4511H161.618V36.5052V36.9417L161.56 36.9382ZM157.992 36.8273C158.615 36.8037 159.228 36.7792 159.826 36.7792C160.412 36.7792 160.961 36.8037 161.51 36.8255L161.508 36.5626H161.487C161.061 36.5636 160.763 36.396 160.607 36.025C160.441 35.6426 160.291 35.1755 160.141 34.7363L157.824 28.1504C157.786 28.05 157.748 27.9356 157.717 27.85C157.707 27.8343 157.708 27.8343 157.698 27.8343H157.674C157.648 27.8343 157.634 27.843 157.603 27.8518C157.358 28.0063 156.854 28.2576 156.481 28.3546C156.403 28.8313 156.174 29.459 156.012 29.9261L153.996 35.7054C153.805 36.2519 153.365 36.5636 152.85 36.5626H152.832V36.8255C153.265 36.8037 153.698 36.7792 154.136 36.7792C154.624 36.7792 155.121 36.8037 155.605 36.8255V36.5626H155.52C155.11 36.5574 154.536 36.513 154.521 36.0651C154.524 35.8154 154.68 35.495 154.801 35.0681L154.853 35.0846L154.801 35.0663L155.216 33.7201H158.152L158.656 35.2165C158.795 35.6216 158.91 35.956 158.91 36.1411C158.891 36.5278 158.363 36.5548 158.075 36.5626H157.992V36.8273H157.992ZM155.42 33.1223L156.628 29.4503H156.666H156.693V29.5053L156.68 29.5079L156.693 29.5053V29.4503H156.732L157.922 33.1223H155.42ZM155.571 33.0139H157.773L156.678 29.6415L155.571 33.0139ZM156.641 29.5211L156.666 29.5115L156.641 29.5211Z" fill="#211E1F"/>
<path d="M164.738 35.6505C164.738 36.1543 165.087 36.3044 165.491 36.3559C166.007 36.3943 166.573 36.3943 167.155 36.3306C167.682 36.2669 168.136 35.9648 168.361 35.6505C168.562 35.3729 168.676 35.0202 168.751 34.7434H169.116C168.978 35.461 168.802 36.1682 168.65 36.8849C167.545 36.8849 166.435 36.8352 165.328 36.8352C164.219 36.8352 163.113 36.8849 162.005 36.8849V36.5051H162.178C162.633 36.5051 163.126 36.444 163.126 35.6627V29.1919C163.126 28.5353 162.633 28.4734 162.178 28.4734H162.005V28.0954C162.67 28.0954 163.326 28.1452 163.992 28.1452C164.636 28.1452 165.265 28.0954 165.907 28.0954V28.4734H165.59C165.114 28.4734 164.738 28.4874 164.738 29.1526V35.6505Z" fill="#211E1F"/>
<path d="M168.65 36.9382C167.54 36.9382 166.433 36.8876 165.328 36.8876C164.219 36.8876 163.111 36.9382 162.002 36.9382H161.949V36.8841V36.4511H162.002H162.177C162.634 36.4406 163.065 36.4092 163.071 35.6627V29.1894C163.065 28.5774 162.637 28.5355 162.177 28.5267H161.949V28.4735V28.0414H162.002C162.672 28.0414 163.327 28.0894 163.992 28.0894C164.631 28.0894 165.26 28.0414 165.907 28.0414H165.959V28.0955V28.5267H165.907H165.591C165.103 28.5407 164.799 28.518 164.789 29.1527V35.6506C164.793 36.1194 165.1 36.246 165.493 36.301C165.716 36.3167 165.949 36.3263 166.192 36.3263C166.5 36.3263 166.82 36.3115 167.145 36.2765C167.658 36.2164 168.1 35.9203 168.317 35.62C168.51 35.3511 168.622 35.0054 168.697 34.7304L168.709 34.6886H168.75H169.183L169.171 34.755C169.029 35.4752 168.856 36.1788 168.703 36.8956L168.693 36.9384H168.65H168.65V36.9382ZM168.604 36.8282C168.75 36.1455 168.915 35.4776 169.051 34.7966H168.792C168.714 35.0707 168.602 35.4086 168.404 35.6836C168.169 36.0101 167.703 36.3174 167.157 36.3846C166.827 36.4187 166.501 36.4361 166.192 36.4361C165.948 36.4361 165.711 36.4248 165.483 36.409C165.074 36.3636 164.677 36.189 164.679 35.6504V29.1526C164.679 28.4533 165.121 28.4175 165.591 28.4175H165.851V28.1503C165.23 28.1538 164.619 28.2 163.992 28.2C163.34 28.2 162.703 28.1538 162.057 28.1503V28.4175H162.177C162.627 28.4175 163.177 28.496 163.177 29.1892V35.6626C163.177 36.4772 162.629 36.5618 162.177 36.5618H162.057V36.8281C163.146 36.8272 164.234 36.7801 165.328 36.7801C166.422 36.7801 167.515 36.8272 168.604 36.8282Z" fill="#211E1F"/>
<path d="M168.963 27.7375C169.722 27.7375 170.289 28.3207 170.289 29.068C170.289 29.8118 169.722 30.3897 168.963 30.3897C168.205 30.3897 167.637 29.8118 167.637 29.068C167.637 28.3207 168.205 27.7375 168.963 27.7375ZM168.963 30.1426C169.556 30.1426 170.012 29.6363 170.012 29.068C170.012 28.4961 169.563 27.9854 168.963 27.9854C168.367 27.9854 167.911 28.4962 167.911 29.068C167.911 29.6363 168.367 30.1426 168.963 30.1426ZM168.303 29.7664V29.7009C168.466 29.6782 168.496 29.6834 168.496 29.5822V28.6009C168.496 28.463 168.481 28.4159 168.309 28.4228V28.3556H168.988C169.222 28.3556 169.436 28.4665 169.436 28.7074C169.436 28.9047 169.305 29.0505 169.122 29.1072L169.34 29.411C169.442 29.5489 169.556 29.6782 169.632 29.7235V29.7663H169.374C169.25 29.7663 169.141 29.5053 168.897 29.1552H168.75V29.5961C168.75 29.6834 168.781 29.6781 168.944 29.7008V29.7663H168.303V29.7664ZM168.75 29.068H168.907C169.078 29.068 169.158 28.9379 169.158 28.7292C169.158 28.518 169.034 28.4437 168.898 28.4437H168.75V29.068Z" fill="#211E1F"/>
</g>
<defs>
<clipPath id="clip0_293_2826">
<rect width="169.802" height="44" fill="white" transform="translate(0.487061)"/>
</clipPath>
</defs>
</svg>