<svg xmlns="http://www.w3.org/2000/svg" width="165" height="30" viewBox="0 0 165 30" fill="none">
<g clip-path="url(#clip0_279_1309)">
<path fill-rule="evenodd" clip-rule="evenodd" d="M8.10136 0.820587H0.571289V29.0603H8.10136C16.5378 29.0603 23.9875 26.1473 23.9875 14.9378C23.9875 3.73357 16.5378 0.820587 8.10136 0.820587ZM9.16328 24.61H6.0901V5.27103H9.16328C13.7757 5.27103 18.2273 8.78818 18.2273 14.9378C18.2273 21.0874 13.7757 24.61 9.16328 24.61Z" fill="black"/>
<path fill-rule="evenodd" clip-rule="evenodd" d="M31.7106 0.82058H26.1918V29.0603H31.7106V0.82058ZM43.3972 5.54608C45.5587 5.8212 47.6021 7.08349 49.5007 8.27565V2.86506C47.6557 1.24674 45.5372 0.335083 43.172 0.335083C38.3289 0.335083 33.5556 2.64389 33.5556 8.95535C33.5556 14.2667 37.4536 15.8387 40.8178 17.1954C43.3715 18.2252 45.6176 19.131 45.6176 21.4542C45.6176 24.0057 43.0754 24.761 40.7317 24.3402C39.1044 24.0441 37.1062 22.842 35.4095 21.8213C34.8806 21.5031 34.381 21.2025 33.931 20.9525V26.6814C36.3177 28.2997 38.05 29.2113 41.0428 29.5512C46.567 30.1715 51.3725 27.1992 51.3725 21.0118C51.3725 15.5054 47.2919 13.9006 43.8775 12.5579C41.4216 11.5921 39.3104 10.7618 39.3104 8.7126C39.3104 5.89132 41.4182 5.29254 43.3972 5.54608ZM107.355 0.82058H101.444L112.16 29.0603H114.161L124.936 0.82058H119.207L113.485 15.7415L107.355 0.82058ZM142.613 0.82058H126.373V29.0603H142.693V24.6099H131.892V16.6801H141.707V12.2298H131.892V5.27097H142.613V0.82058ZM150.116 0.82058H144.163V29.0603H149.682V17.3275H151.457C153.785 17.3275 154.493 18.1366 155.281 20.2404L158.59 29.0549H164.737L160.323 18.0126C159.77 16.7611 158.901 15.2183 157.405 15.0996V15.0187C160.918 14.5332 163.085 11.782 163.085 8.46445C163.085 0.809647 156.376 0.815367 150.557 0.820329C150.409 0.820454 150.262 0.82058 150.116 0.82058ZM151.495 12.8771H149.682V5.26555H151.495C154.257 5.26555 157.33 5.55146 157.33 8.94993C157.33 12.4725 154.214 12.8771 151.495 12.8771Z" fill="black"/>
<path d="M103.305 14.8622C103.305 6.32288 97.706 0.335083 89.0711 0.335083C80.3236 0.335083 74.5848 6.1988 74.5848 14.8622C74.5848 23.5202 80.2431 29.5512 89.0711 29.5512C97.7811 29.5512 103.305 23.3962 103.305 14.8622Z" fill="#DB8135"/>
<path d="M73.1904 26.2391C71.8496 27.9868 68.5029 29.0603 66.245 29.2222C57.6905 29.8263 51.941 24.9983 51.941 15.4502C51.941 5.78346 56.9504 0.178675 66.2825 0.615622C68.0953 0.701933 71.0612 1.3169 73.0671 2.96758V8.41594C70.7287 6.94866 68.3045 5.90754 66.2503 5.82123C60.576 5.58927 57.6959 9.26286 57.6959 15.0457C57.6959 20.7907 60.3829 24.022 66.2557 23.8008C68.5083 23.7145 71.9676 21.8534 73.1851 20.8285V26.2391H73.1904Z" fill="black"/>
</g>
<defs>
<clipPath id="clip0_279_1309">
<rect width="164.33" height="29.3446" fill="white" transform="translate(0.571289 0.327698)"/>
</clipPath>
</defs>
</svg>