<svg xmlns="http://www.w3.org/2000/svg" width="150" height="227" viewBox="0 0 150 227" fill="none">
<path d="M59.4565 178.472C56.4411 176.513 54.2546 173.913 53.2632 170.437C52.653 168.298 52.226 166.04 52.0684 163.715C51.512 155.684 50.686 147.722 48.6574 139.85C48.6192 139.716 48.6192 139.716 48.5811 139.582C45.9299 123.194 42.788 106.859 41.1183 90.3653C40.5465 84.5607 41.1188 78.968 42.1437 73.1889C42.8558 69.3528 44.9892 66.4468 48.5718 64.8222C50.7483 63.8406 53.1358 63.0922 55.503 62.7791C71.9003 60.4878 87.9645 56.7757 104.192 53.3806C115.26 51.1495 126.355 49.2697 137.451 47.3899C140.136 46.9246 142.946 46.6427 145.697 46.6624C153.335 46.5907 158.847 50.2115 161.58 57.2605C162.813 60.317 163.594 63.5599 164.018 66.8213C165.861 79.6151 166.771 92.4304 167.055 105.332C167.227 113.03 167.573 120.828 168.015 128.457C168.513 136.789 168.52 145.174 167.912 153.428C167.652 157.077 167.172 160.712 165.989 164.165C164.603 168.172 161.979 171.131 157.954 172.724C155.335 173.674 152.544 174.525 149.82 174.857C143.21 175.743 136.484 176.229 129.749 176.932C122.215 177.623 114.644 178.179 107.148 179.003C96.0342 180.314 84.7883 180.655 73.5424 180.996C70.387 181.079 67.2622 180.509 64.0891 180.022C62.5889 179.829 60.9846 179.017 59.4565 178.472Z" fill="#00D4FF"/>
<mask id="mask0_223_35" style="mask-type:alpha" maskUnits="userSpaceOnUse" x="40" y="46" width="129" height="136">
<path d="M59.4565 178.472C56.4411 176.513 54.2546 173.913 53.2632 170.437C52.653 168.298 52.226 166.04 52.0684 163.715C51.512 155.684 50.686 147.722 48.6574 139.85C48.6192 139.716 48.6192 139.716 48.5811 139.582C45.9299 123.194 42.788 106.859 41.1183 90.3653C40.5465 84.5607 41.1188 78.968 42.1437 73.1889C42.8558 69.3528 44.9892 66.4468 48.5718 64.8222C50.7483 63.8406 53.1358 63.0922 55.503 62.7791C71.9003 60.4878 87.9645 56.7757 104.192 53.3806C115.26 51.1495 126.355 49.2697 137.451 47.3899C140.136 46.9246 142.946 46.6427 145.697 46.6624C153.335 46.5907 158.847 50.2115 161.58 57.2605C162.813 60.317 163.594 63.5599 164.018 66.8213C165.861 79.6151 166.771 92.4304 167.055 105.332C167.227 113.03 167.573 120.828 168.015 128.457C168.513 136.789 168.52 145.174 167.912 153.428C167.652 157.077 167.172 160.712 165.989 164.165C164.603 168.172 161.979 171.131 157.954 172.724C155.335 173.674 152.544 174.525 149.82 174.857C143.21 175.743 136.484 176.229 129.749 176.932C122.215 177.623 114.644 178.179 107.148 179.003C96.0342 180.314 84.7883 180.655 73.5424 180.996C70.387 181.079 67.2622 180.509 64.0891 180.022C62.5889 179.829 60.9846 179.017 59.4565 178.472Z" fill="#55BBDA"/>
</mask>
<g mask="url(#mask0_223_35)">
<path d="M138.189 231.123C137.259 230.14 136.878 228.804 136.632 227.434C136.139 224.694 136.444 221.966 136.922 219.338C138.159 212.792 140.405 206.492 142.997 200.391C145.037 195.648 147.299 190.92 149.339 186.177C149.532 185.841 149.591 185.54 149.852 184.686C148.582 185.294 147.898 185.682 147.129 186.021C137.909 190.649 128.45 194.694 118.227 197.07C114.505 197.942 110.62 198.496 106.794 198.75C104.525 198.895 102.056 198.59 99.7796 197.949C94.6986 196.586 91.9981 192.686 92.2803 187.6C92.4431 184.12 93.6144 180.887 95.304 177.951C97.2833 174.513 99.4734 171.307 101.625 167.968C101.867 167.549 102.195 167.179 102.812 166.306C101.638 166.747 100.917 167.002 100.195 167.256C93.9985 169.829 87.6394 172.086 81.0898 173.674C76.6945 174.716 72.3095 175.541 67.7441 175.48C65.0816 175.51 62.5258 175.155 60.0386 174.281C55.9001 172.68 53.5731 169.33 53.7765 164.98C53.9189 161.935 54.9835 159.087 56.3073 156.387C59.6408 149.597 64.2217 143.637 68.889 137.726C70.4414 135.828 71.9937 133.931 73.3835 131.716C72.6137 132.054 71.8439 132.393 71.1605 132.781C63.6148 136.699 56.1276 140.316 47.9799 142.882C44.4688 143.987 40.8815 144.824 37.218 145.394C35.0737 145.723 32.7288 145.601 30.6633 145.193C26.225 144.312 23.6185 141.248 23.2935 136.817C23.0701 134.009 23.7688 131.396 24.6404 128.883C26.673 123.353 29.4831 118.272 32.8496 113.622C36.6505 108.217 40.7588 102.878 44.6461 97.5236C45.1187 96.9024 45.5913 96.2812 45.8149 95.2933C45.0933 95.5478 44.3718 95.8023 43.602 96.1406C35.6829 99.5086 27.525 102.292 18.9379 103.824C15.7647 104.342 12.5153 104.592 9.31416 104.759C8.38178 104.78 7.18008 104.87 6.80923 103.316C7.26146 103.13 7.62731 102.894 8.06937 102.925C13.3563 102.731 18.5594 101.484 23.5898 100.138C32.5733 97.7179 41.1555 94.3968 49.4608 90.3579C50.5965 89.7835 51.6559 88.942 52.5426 88.0009C66.6841 72.0245 81.8417 57.08 99.1562 44.3826C104.299 40.6438 109.517 37.1723 115.271 34.5678C117.629 33.4689 120.063 32.6372 122.535 31.9391C124.161 31.3121 125.988 31.1357 127.07 32.6522C128.19 34.3024 127.359 35.9456 126.328 37.1383C123.33 40.5485 120.37 44.0923 116.988 47.1699C98.8556 64.0862 78.721 78.2863 56.5846 89.7702C54.3133 90.9189 52.4255 92.4002 50.8249 94.3818C44.8568 101.553 38.9268 108.858 33.8987 116.794C31.1674 121.14 28.5225 125.535 27.0487 130.493C26.5736 132.118 26.2712 133.842 26.2381 135.498C26.1414 139.462 28.2398 142.011 32.2665 142.208C34.5632 142.414 37.053 142.284 39.342 141.704C44.0548 140.51 48.6914 139.048 53.2518 137.319C63.1907 133.44 72.4792 128.292 81.5188 122.778C82.2505 122.306 83.0787 121.666 83.686 121.011C96.524 107.299 110.637 94.7677 124.578 82.1373C134.858 72.8703 145.272 63.5692 156.395 55.2346C158.648 53.5173 161.075 51.8996 163.539 50.4154C164.271 49.9434 165.175 49.571 166.156 49.4657C167.675 49.2239 168.816 50.4391 168.302 51.9302C167.944 52.9523 167.413 53.8748 166.882 54.7973C163.119 60.3355 158.417 65.1089 153.8 69.9322C133.416 91.3587 110.042 109.388 84.829 125.019C83.231 125.997 81.7574 127.158 80.5811 128.603C75.4717 134.482 70.497 140.327 65.6469 146.356C62.6768 150.117 60.0039 154.161 58.2431 158.619C57.585 160.362 57.0133 162.154 56.749 164.012C56.2103 167.945 58.0393 170.562 61.8908 171.663C63.8597 172.238 66.0217 172.478 68.0211 172.401C71.4916 172.167 74.9239 171.798 78.28 171.163C88.1756 169.156 97.3929 165.531 106.371 161.321C107.141 160.983 107.835 160.377 108.394 159.806C124.415 141.562 142.048 124.916 160.572 109.118C170.551 100.572 180.694 92.3427 191.43 84.679C193.539 83.2134 195.734 81.7975 197.967 80.5152C199.2 79.7731 200.605 79.1305 201.918 80.4452C203.231 81.7599 202.545 83.1515 201.783 84.2759C199.352 87.9007 197.007 91.5752 194.278 94.9172C176.005 117.671 154.397 136.829 129.415 152.258C123.658 155.866 117.575 158.84 111.694 162.265C110.779 162.855 109.778 163.395 109.123 164.134C105.035 169.038 101.033 173.992 98.279 179.776C97.2931 181.888 96.4318 184.184 95.9642 186.595C95.1256 191.249 97.2519 194.148 102.046 195.01C104.111 195.418 106.322 195.574 108.418 195.33C112.389 194.825 116.321 194.186 120.226 193.197C131.364 190.231 141.738 185.596 151.758 179.976C152.807 179.352 153.511 178.529 154.09 177.523C160.086 166.906 168.298 158.235 177.871 150.794C179.893 149.279 182.175 147.913 184.446 146.764C185.63 146.106 187.063 145.814 188.486 145.74C190.841 145.645 192.355 147.41 191.677 149.588C191.105 151.38 190.177 153.191 189.087 154.685C186.049 158.965 182.195 162.664 178.178 166.046C171.521 171.816 164.242 176.669 156.666 181.24C155.8 181.746 154.789 182.503 154.306 183.342C148.076 195.164 142.24 207.102 138.708 220.031C138.184 221.74 137.834 223.548 137.752 225.288C137.585 226.978 137.935 228.966 138.189 231.123ZM198.392 83.7744C185.564 89.6757 121.626 146.209 116.478 155.751C126.196 151.856 151.859 133.246 167.535 118.6C178.942 107.973 189.41 96.5806 198.392 83.7744ZM125.248 34.6182C125.124 34.4348 124.913 34.2017 124.788 34.0184C123.981 34.2231 123.096 34.1607 122.327 34.499C120.114 35.3464 117.863 36.0601 115.812 37.2244C111.76 39.4691 107.794 41.7636 104.077 44.4248C90.462 53.8925 78.1398 65.1099 66.5365 77.0762C64.0695 79.5639 61.8235 82.0672 59.4429 84.6046C59.481 84.7382 59.6538 84.8377 59.6919 84.9713C60.51 84.5491 61.328 84.1268 62.1461 83.7046C77.6719 75.1138 92.1535 65.14 105.764 53.8827C111.9 48.8177 117.901 43.7869 123.02 37.69C123.858 36.8329 124.534 35.6587 125.248 34.6182ZM94.6412 114.366C97.2504 112.63 99.7733 110.845 102.334 109.193C123.508 94.5861 142.87 77.9313 160.038 58.8958C161.532 57.2995 162.853 55.6036 164.26 53.9575C157.363 56.3503 105.256 101.719 94.6412 114.366ZM188.641 149.068C182.576 148.814 164.009 166.485 159.779 174.434C160.048 174.365 160.269 174.381 160.452 174.263C169.281 168.516 177.515 162.202 184.532 154.407C186.026 152.81 187.126 151.099 188.641 149.068Z" fill="#0A2540"/>
</g>
</svg>