<svg xmlns="http://www.w3.org/2000/svg" width="289" height="355" viewBox="0 0 289 355" fill="none">
<path d="M70.6047 354.529C58.5047 354.728 46.6047 353.338 35.2047 349.469C28.3047 347.187 21.9047 344.012 16.5047 339.051C13.7047 336.471 11.4047 333.593 9.70474 330.22C8.00474 326.747 6.40474 323.373 4.70474 319.901C2.30474 314.94 1.00474 309.681 0.604743 304.323C0.204743 299.263 -0.195257 294.202 0.104743 289.142C0.604743 280.212 2.70474 271.58 6.00474 263.245C8.30474 257.391 11.4047 251.934 14.7047 246.576C17.0047 242.805 19.3047 239.134 21.6047 235.364C28.2047 224.35 37.1047 215.42 47.2047 207.582C56.1047 200.636 65.7047 194.782 75.2047 188.829C101.205 172.854 127.105 156.879 153.205 141.103C174.805 128.006 195.205 113.222 214.205 96.5526C227.905 84.4476 241.505 72.3425 255.205 60.2375C267.005 49.8192 279.205 39.6986 292.405 30.9671C307.205 21.2433 322.505 12.5118 339.005 6.16165C347.305 2.88733 355.805 0.605231 364.805 0.109122C373.505 -0.386986 381.905 0.803674 390.005 3.78033C400.005 7.35231 407.205 14.2978 412.905 22.8309C419.405 32.4554 424.305 42.7745 428.005 53.7881C432.905 68.4729 434.705 83.6538 434.705 99.0332C434.705 107.665 432.705 116 429.905 124.235C426.505 134.455 421.705 143.981 415.805 153.01C404.105 170.87 389.905 186.547 373.605 200.537C359.405 212.642 344.105 223.06 327.905 232.189C310.505 241.912 292.705 251.041 274.905 259.872C256.205 269.198 237.605 278.724 219.505 289.34C199.105 301.247 178.505 312.856 158.105 324.663C154.805 326.549 151.505 328.632 148.305 330.617C136.905 337.463 125.205 343.615 112.505 347.683C103.205 350.659 93.8047 353.14 84.0047 353.835C79.4047 354.231 75.0047 354.331 70.6047 354.529Z" fill="#425466"/>
<mask id="mask0_223_28" style="mask-type:alpha" maskUnits="userSpaceOnUse" x="0" y="0" width="435" height="355">
<path d="M70.6047 354.529C58.5047 354.728 46.6047 353.338 35.2047 349.469C28.3047 347.187 21.9047 344.012 16.5047 339.051C13.7047 336.471 11.4047 333.593 9.70474 330.22C8.00474 326.747 6.40474 323.373 4.70474 319.901C2.30474 314.94 1.00474 309.681 0.604743 304.323C0.204743 299.263 -0.195257 294.202 0.104743 289.142C0.604743 280.212 2.70474 271.58 6.00474 263.245C8.30474 257.391 11.4047 251.934 14.7047 246.576C17.0047 242.805 19.3047 239.134 21.6047 235.364C28.2047 224.35 37.1047 215.42 47.2047 207.582C56.1047 200.636 65.7047 194.782 75.2047 188.829C101.205 172.854 127.105 156.879 153.205 141.103C174.805 128.006 195.205 113.222 214.205 96.5526C227.905 84.4476 241.505 72.3425 255.205 60.2375C267.005 49.8192 279.205 39.6986 292.405 30.9671C307.205 21.2433 322.505 12.5118 339.005 6.16165C347.305 2.88733 355.805 0.605231 364.805 0.109122C373.505 -0.386986 381.905 0.803674 390.005 3.78033C400.005 7.35231 407.205 14.2978 412.905 22.8309C419.405 32.4554 424.305 42.7745 428.005 53.7881C432.905 68.4729 434.705 83.6538 434.705 99.0332C434.705 107.665 432.705 116 429.905 124.235C426.505 134.455 421.705 143.981 415.805 153.01C404.105 170.87 389.905 186.547 373.605 200.537C359.405 212.642 344.105 223.06 327.905 232.189C310.505 241.912 292.705 251.041 274.905 259.872C256.205 269.198 237.605 278.724 219.505 289.34C199.105 301.247 178.505 312.856 158.105 324.663C154.805 326.549 151.505 328.632 148.305 330.617C136.905 337.463 125.205 343.615 112.505 347.683C103.205 350.659 93.8047 353.14 84.0047 353.835C79.4047 354.231 75.0047 354.331 70.6047 354.529Z" fill="black"/>
</mask>
<g mask="url(#mask0_223_28)">
<path d="M501.305 116C499.805 116.099 498.705 116.298 497.605 116.199C493.705 116.099 489.805 115.901 485.905 115.802C464.005 115.504 442.505 118.381 421.605 124.632C392.305 133.463 363.905 144.576 337.705 160.551C296.105 186.051 260.105 217.702 231.105 256.994C212.105 282.792 194.105 309.383 177.205 336.57C162.205 360.582 146.305 383.998 128.705 406.224C123.905 412.375 119.005 418.428 113.305 423.786C110.605 426.366 107.605 428.648 104.605 430.831C103.105 431.922 101.205 432.716 99.4047 433.311C94.9047 434.7 91.0047 433.212 89.0047 428.945C87.9047 426.663 87.1047 423.984 86.8047 421.504C86.3047 417.634 86.1047 413.764 86.3047 409.895C88.5047 378.045 96.0047 347.385 109.505 318.313C117.805 300.453 128.405 283.883 140.105 268.008C160.205 240.722 183.505 216.412 209.005 194.088C242.605 164.619 279.905 140.706 320.205 121.358C341.905 110.94 363.705 101.018 385.505 90.7978C401.805 83.1577 417.905 75.22 433.205 65.8931C445.105 58.6499 456.405 50.613 466.305 40.79C470.405 36.7219 474.305 32.3562 477.505 27.4943C480.405 23.1286 482.805 18.4651 483.705 13.2064C484.205 10.2297 484.205 7.2531 483.005 4.27644C481.905 1.39902 479.905 -0.684639 477.105 -1.97452C474.405 -3.2644 471.505 -3.76051 468.505 -3.95895C459.505 -4.35584 450.905 -2.47063 442.505 0.605247C431.005 4.87178 420.305 10.7259 409.705 16.7784C388.705 28.7842 368.705 42.3776 349.305 56.864C326.405 74.0293 302.805 90.004 278.405 104.887C265.105 113.023 252.005 121.358 238.705 129.395C209.705 146.957 183.405 167.893 159.705 192.202C139.405 213.039 120.905 235.265 103.805 258.681C94.5047 271.282 85.6047 284.181 76.6047 297.08C60.9047 319.405 44.7047 341.432 26.9047 362.169C16.3047 374.572 5.1047 386.478 -7.4953 396.996C-15.8953 404.041 -24.6953 410.49 -34.3953 415.55C-37.9953 417.436 -41.5953 419.023 -45.5953 419.817C-48.2953 420.313 -50.9953 420.512 -53.6953 419.916C-58.0953 418.924 -61.3953 416.443 -63.5953 412.673C-65.8953 408.803 -66.7953 404.537 -66.9953 400.171C-67.3953 392.035 -65.3953 384.296 -62.3953 376.755C-58.7953 367.527 -53.6953 359.093 -47.9953 351.056C-40.9953 341.233 -33.0953 332.204 -24.4953 323.77C6.0047 293.805 34.7047 262.253 62.7047 230.006C81.6047 208.376 101.805 188.035 123.805 169.58C143.305 153.208 164.205 138.623 185.605 124.93C225.005 99.827 265.305 76.4106 306.805 54.8795C326.505 44.6597 345.905 33.9437 364.605 22.0371C376.505 14.3971 388.105 6.36011 398.705 -3.06596C404.405 -8.12627 409.605 -13.5835 414.105 -19.636C419.405 -26.7799 423.505 -34.5192 425.805 -43.1515C427.405 -49.3033 427.505 -55.3558 425.605 -61.5075C423.205 -70.4375 417.105 -75.3986 408.005 -76.2916C400.605 -77.0854 393.505 -75.7955 386.605 -73.1165C378.105 -69.8422 370.605 -64.8811 363.405 -59.3247C353.605 -51.7838 344.605 -43.35 335.705 -34.7177C319.405 -18.9414 304.205 -2.07374 289.005 14.794C279.305 25.5099 269.605 36.3251 259.705 46.9418C241.405 66.29 221.405 83.8523 200.405 100.323C171.005 123.342 140.905 145.37 110.305 166.802C96.6047 176.426 82.0047 184.662 67.4047 192.996C54.0047 200.735 40.5047 208.376 27.7047 217.107C15.6047 225.442 4.1047 234.57 -5.6953 245.584C-14.5953 255.506 -22.0953 266.42 -26.9953 278.922C-29.2953 284.677 -30.9953 290.63 -31.1953 296.881C-31.2953 300.056 -30.9953 303.231 -29.9953 306.307C-29.3953 308.093 -28.4953 309.681 -26.4953 310.574C-26.9953 310.574 -27.3953 310.772 -27.8953 310.673C-29.2953 310.276 -30.1953 309.185 -30.6953 307.895C-31.4953 305.613 -32.2953 303.231 -32.5953 300.85C-33.2953 294.798 -32.1953 289.043 -30.3953 283.288C-26.7953 271.778 -20.8953 261.459 -13.5953 251.934C-2.9953 238.043 10.0047 226.831 24.3047 216.809C36.9047 207.979 50.2047 200.14 63.6047 192.599C81.8047 182.28 99.7047 171.564 116.605 159.261C127.705 151.224 138.705 143.088 149.805 134.951C169.005 120.862 188.105 106.574 206.605 91.4923C231.805 71.0527 254.805 48.4301 276.405 24.22C290.705 8.04688 305.405 -7.72938 320.205 -23.5056C331.405 -35.5115 343.405 -46.7235 356.105 -57.241C362.105 -62.2021 368.305 -66.7663 375.005 -70.6359C382.005 -74.6048 389.305 -77.6807 397.405 -78.6729C401.705 -79.169 406.005 -79.2682 410.305 -78.4745C418.805 -76.8869 424.605 -72.025 427.505 -63.9881C430.405 -56.1496 430.205 -48.3111 427.805 -40.3733C425.105 -31.4434 420.605 -23.4064 414.905 -16.064C408.605 -8.02705 401.205 -1.18075 393.305 5.16944C380.405 15.4885 366.505 24.4185 352.305 32.9515C335.305 43.1714 317.705 52.399 300.105 61.6266C260.005 82.6616 220.905 105.383 182.805 129.891C162.105 143.187 142.005 157.475 123.205 173.449C103.005 190.615 84.4047 209.368 66.8047 229.212C51.6047 246.377 36.3047 263.444 20.9047 280.51C7.5047 295.393 -6.8953 309.284 -21.0953 323.373C-29.0953 331.311 -36.7953 339.646 -43.6953 348.675C-50.7953 358.101 -56.9953 368.023 -61.0953 379.235C-63.0953 384.891 -64.5953 390.646 -64.8953 396.599C-65.0953 400.072 -64.7953 403.545 -63.7953 406.918C-61.1953 415.947 -54.3953 420.015 -45.2953 417.535C-41.9953 416.642 -38.7953 415.253 -35.7953 413.764C-24.6953 408.109 -14.9953 400.469 -5.6953 392.233C8.1047 380.128 20.0047 366.634 31.5047 352.743C49.1047 331.41 65.1047 308.887 80.8047 286.165C94.8047 265.726 109.305 245.683 125.005 226.533C144.105 203.315 164.905 181.685 187.805 162.039C204.405 147.85 222.505 135.745 241.005 124.236C264.305 109.749 287.505 95.1635 310.605 80.2803C320.805 73.6324 330.705 66.3892 340.505 59.1461C357.405 46.7433 374.405 34.4398 392.305 23.4262C403.705 16.4807 415.305 9.73364 427.405 3.87956C435.205 0.109138 443.105 -3.2644 451.605 -5.14962C458.305 -6.73717 465.105 -7.53094 472.105 -6.34028C472.905 -6.24105 473.705 -6.04261 474.405 -5.84417C484.905 -3.2644 487.405 4.87177 486.605 12.2142C486.005 17.5722 483.905 22.5332 481.205 27.0974C476.805 34.3406 471.205 40.5916 464.905 46.3465C455.105 55.3756 444.205 63.0157 432.705 69.9612C417.605 78.9904 401.905 86.7297 386.005 94.1713C363.305 104.788 340.505 115.306 318.005 126.121C292.605 138.424 268.105 152.414 245.305 169.084C209.605 195.08 177.405 224.747 150.105 259.574C140.205 272.274 131.005 285.471 122.805 299.263C109.205 322.183 99.9047 346.691 94.3047 372.687C92.0047 383.204 90.1047 393.821 89.3047 404.636C88.8047 410.689 88.4047 416.642 89.6047 422.694C90.0047 424.58 90.5047 426.366 91.4047 428.052C93.0047 431.128 95.5047 432.22 98.8047 431.029C100.705 430.434 102.505 429.441 104.105 428.35C108.105 425.671 111.705 422.397 114.705 418.825C120.805 411.582 126.905 404.338 132.605 396.798C149.205 375.167 164.005 352.346 178.305 329.228C193.705 304.521 210.105 280.41 227.205 256.895C249.505 226.136 276.405 200.041 306.805 177.22C344.005 149.438 385.405 130.685 430.305 118.878C444.305 115.206 458.505 113.321 473.005 113.023C482.205 112.825 491.405 113.52 500.405 115.405C500.505 115.405 500.605 115.603 501.305 116Z" fill="#A7B8C7"/>
</g>
</svg>