<svg xmlns="http://www.w3.org/2000/svg" width="104" height="42" viewBox="0 0 104 42" fill="none">
<g clip-path="url(#clip0_279_1301)">
<path d="M49.6496 20.5194V32.8077H45.8413V2.4609H55.9417C57.1473 2.43512 58.346 2.654 59.4685 3.10492C60.5911 3.55583 61.6153 4.22985 62.4821 5.08807C63.3576 5.89419 64.0543 6.8828 64.5256 7.98748C64.9968 9.09215 65.2316 10.2873 65.2141 11.4926C65.2392 12.7043 65.008 13.9072 64.5365 15.0189C64.0649 16.1306 63.3641 17.1248 62.4821 17.9334C60.7159 19.6574 58.5358 20.5186 55.9417 20.5169H49.6496V20.5194ZM49.6496 6.19705V16.7905H56.0363C56.7365 16.8117 57.4332 16.6831 58.0821 16.413C58.7309 16.1428 59.3175 15.737 59.8044 15.2214C60.2887 14.7394 60.6737 14.1629 60.9366 13.526C61.1995 12.889 61.3349 12.2046 61.3349 11.5131C61.3349 10.8217 61.1995 10.1372 60.9366 9.50029C60.6737 8.86335 60.2887 8.28683 59.8044 7.80483C59.3236 7.27844 58.7391 6.86267 58.0894 6.58507C57.4398 6.30747 56.74 6.17438 56.0363 6.19463H49.6496V6.19705Z" fill="#425466"/>
<path d="M73.9897 11.3666C76.8045 11.3666 79.0265 12.1366 80.6554 13.6766C82.2844 15.2166 83.0981 17.328 83.0966 20.0109V32.8077H79.4538V29.9263H79.2882C77.7113 32.2992 75.6139 33.4857 72.9962 33.4857C70.7617 33.4857 68.8922 32.8077 67.3878 31.4518C66.6658 30.8294 66.0886 30.05 65.6982 29.1704C65.3078 28.2907 65.1141 27.3329 65.1312 26.3669C65.1312 24.2184 65.9244 22.5097 67.5108 21.2409C69.0972 19.9721 71.215 19.3361 73.8643 19.3329C76.1257 19.3329 77.988 19.7566 79.4514 20.6041V19.713C79.4558 19.0545 79.3168 18.4032 79.0448 17.8064C78.7727 17.2096 78.3743 16.6823 77.8784 16.2626C76.8714 15.3325 75.5589 14.825 74.2026 14.8413C72.0753 14.8413 70.3919 15.7598 69.1524 17.5968L65.7982 15.4345C67.6432 12.7226 70.3737 11.3666 73.9897 11.3666ZM69.0625 26.4517C69.0599 26.9478 69.1732 27.4374 69.393 27.8796C69.6127 28.3219 69.9324 28.704 70.3256 28.9941C71.1679 29.6723 72.2133 30.0316 73.2848 30.0111C74.8918 30.0083 76.4323 29.3535 77.5686 28.1902C78.8301 26.9747 79.4609 25.5485 79.4609 23.9117C78.2735 22.9431 76.6177 22.4589 74.4935 22.4589C72.9465 22.4589 71.6566 22.8406 70.6237 23.6042C69.5805 24.379 69.0625 25.3209 69.0625 26.4517Z" fill="#425466"/>
<path d="M104.007 12.0446L91.2906 41.9605H87.3593L92.0783 31.493L83.7166 12.0446H87.856L93.8997 26.9602H93.9825L99.8606 12.0446H104.007Z" fill="#425466"/>
<path d="M34.2603 17.8704C34.2617 16.6824 34.1636 15.4964 33.967 14.3255H17.9058V21.0399H27.1049C26.9167 22.1123 26.5182 23.1346 25.9336 24.0451C25.3491 24.9556 24.5904 25.7356 23.7034 26.3379V30.6963H29.1936C32.4082 27.6623 34.2603 23.1756 34.2603 17.8704Z" fill="#4285F4"/>
<path d="M17.9056 34.9071C22.5016 34.9071 26.3715 33.3622 29.1934 30.6987L23.7033 26.3403C22.1752 27.4009 20.2072 28.0062 17.9056 28.0062C13.4634 28.0062 9.69287 24.9408 8.34457 20.8099H2.68884V25.3015C4.10636 28.189 6.27998 30.6163 8.96701 32.3124C11.6541 34.0086 14.7488 34.9069 17.9056 34.9071Z" fill="#34A853"/>
<path d="M8.3446 20.8099C7.63181 18.6454 7.63181 16.3013 8.3446 14.1367V9.64508H2.68887C1.4964 12.0741 0.875366 14.7549 0.875366 17.4733C0.875366 20.1918 1.4964 22.8726 2.68887 25.3016L8.3446 20.8099Z" fill="#FBBC05"/>
<path d="M17.9056 6.94046C20.3344 6.89984 22.6813 7.8392 24.4389 9.55552L29.2999 4.57964C26.2175 1.61608 22.1341 -0.0109596 17.9056 0.039596C14.7488 0.0397432 11.6541 0.938051 8.96701 2.63423C6.27998 4.33041 4.10636 6.7577 2.68884 9.64511L8.34457 14.1367C9.69287 10.0059 13.4634 6.94046 17.9056 6.94046Z" fill="#EA4335"/>
</g>
<defs>
<clipPath id="clip0_279_1301">
<rect width="103.125" height="41.9209" fill="white" transform="translate(0.874512 0.0395508)"/>
</clipPath>
</defs>
</svg>