<svg xmlns="http://www.w3.org/2000/svg" width="47" height="46" viewBox="0 0 47 46" fill="none">
<circle cx="23.723" cy="23" r="22.4227" fill="#425466" stroke="#425466" stroke-width="1.15462"/>
<path d="M18.05 31H14.225V18.9625H18.05V31ZM16.1375 17.275C14.9 17.275 14 16.375 14 15.1375C14 13.9 15.0125 13 16.1375 13C17.375 13 18.275 13.9 18.275 15.1375C18.275 16.375 17.375 17.275 16.1375 17.275ZM32 31H28.175V24.475C28.175 22.5625 27.3875 22 26.2625 22C25.1375 22 24.0125 22.9 24.0125 24.5875V31H20.1875V18.9625H23.7875V20.65C24.125 19.8625 25.475 18.625 27.3875 18.625C29.525 18.625 31.775 19.8625 31.775 23.575V31H32Z" fill="white"/>
</svg>