<svg xmlns="http://www.w3.org/2000/svg" width="198" height="35" viewBox="0 0 198 35" fill="none">
<g clip-path="url(#clip0_279_994)">
<path d="M86.3125 23.1566V15.9952C86.3125 13.2738 84.5855 11.4596 81.803 11.4596C80.1719 11.3641 78.6368 12.128 77.7732 13.5125C76.9577 12.1757 75.5185 11.4118 73.9833 11.4596C72.64 11.4118 71.3447 12.0325 70.6251 13.1783V11.746H68.1305V23.1566H70.6731V16.8545C70.6731 14.8493 71.7765 13.799 73.5036 13.799C75.1826 13.799 75.9982 14.8971 75.9982 16.8068V23.1566H78.5408V16.8545C78.5408 14.8493 79.6922 13.799 81.3713 13.799C83.0983 13.799 83.9139 14.8971 83.9139 16.8068V23.1566H86.3125ZM123.684 11.746H119.606V8.26075H117.064V11.746H114.713V14.0377H117.064V19.2417C117.064 21.9153 118.119 23.4908 121.046 23.4908C122.149 23.4908 123.252 23.2044 124.164 22.5837L123.444 20.4353C122.773 20.8172 122.005 21.0559 121.237 21.1037C119.99 21.1037 119.558 20.3398 119.558 19.194V13.9899H123.636V11.746H123.684ZM144.984 11.4596C143.737 11.4118 142.586 12.0802 141.962 13.1306V11.746H139.467V23.1566H141.962V16.7591C141.962 14.8493 142.778 13.799 144.409 13.799C144.936 13.799 145.464 13.8945 145.992 14.0854L146.759 11.746C146.184 11.555 145.608 11.4596 144.984 11.4596ZM112.746 12.6531C111.355 11.7938 109.724 11.4118 108.045 11.4596C105.118 11.4596 103.247 12.8441 103.247 15.1358C103.247 16.9978 104.639 18.1436 107.229 18.5256L108.428 18.7165C109.82 18.9075 110.443 19.2894 110.443 19.9101C110.443 20.8172 109.532 21.2947 107.805 21.2947C106.414 21.3424 105.07 20.9127 103.967 20.1011L102.768 22.0586C104.207 23.0612 105.982 23.5863 107.757 23.5386C111.067 23.5386 112.986 21.9631 112.986 19.8146C112.986 17.8094 111.451 16.7591 108.956 16.3771L107.757 16.1861C106.653 16.0429 105.79 15.8042 105.79 15.0403C105.79 14.1809 106.605 13.7035 107.997 13.7035C109.244 13.7035 110.491 14.0377 111.595 14.7061L112.746 12.6531ZM179.717 11.4596C178.47 11.4118 177.319 12.0802 176.695 13.1306V11.746H174.2V23.1566H176.695V16.7591C176.695 14.8493 177.511 13.799 179.142 13.799C179.669 13.799 180.197 13.8945 180.725 14.0854L181.492 11.746C180.917 11.555 180.293 11.4596 179.717 11.4596ZM147.479 17.4752C147.479 20.9605 149.926 23.4908 153.62 23.4908C155.107 23.5863 156.594 23.0612 157.745 22.1063L156.546 20.1011C155.683 20.7695 154.627 21.1037 153.524 21.1514C151.509 21.1514 150.07 19.6714 150.07 17.4752C150.07 15.279 151.557 13.8467 153.524 13.799C154.627 13.799 155.683 14.1809 156.546 14.8493L157.745 12.8441C156.594 11.8892 155.107 11.4118 153.62 11.4596C149.926 11.4596 147.479 13.9899 147.479 17.4752ZM170.89 17.4752V11.746H168.396V13.1306C167.532 12.0325 166.189 11.4118 164.75 11.4596C161.535 11.4596 158.993 13.9899 158.993 17.4752C158.993 20.9605 161.535 23.4908 164.75 23.4908C166.141 23.5386 167.532 22.9179 168.396 21.8198V23.2044H170.89V17.4752ZM161.583 17.4752C161.583 15.47 162.927 13.799 165.085 13.799C167.148 13.799 168.54 15.3745 168.54 17.4752C168.54 19.5759 167.148 21.1514 165.085 21.1514C162.927 21.1037 161.583 19.4804 161.583 17.4752ZM131.456 11.4596C128.098 11.4596 125.747 13.8945 125.747 17.4752C125.747 21.1037 128.194 23.4908 131.648 23.4908C133.375 23.5386 135.054 22.9657 136.349 21.8676L135.102 20.0056C134.142 20.7695 132.991 21.1992 131.744 21.1992C130.113 21.1992 128.673 20.4353 128.29 18.3823H136.829C136.877 18.0481 136.877 17.7617 136.877 17.4275C136.877 13.8945 134.67 11.4596 131.456 11.4596ZM131.408 13.6557C133.039 13.6557 134.046 14.6583 134.334 16.4248H128.338C128.625 14.8016 129.633 13.6557 131.408 13.6557ZM194.11 17.4752V7.16266H191.615V13.1306C190.751 12.0325 189.408 11.4118 187.969 11.4596C184.755 11.4596 182.212 13.9899 182.212 17.4752C182.212 20.9605 184.755 23.4908 187.969 23.4908C189.36 23.5386 190.751 22.9179 191.615 21.8198V23.2044H194.11V17.4752ZM197.036 22.1063C197.132 22.1063 197.228 22.1063 197.324 22.154C197.42 22.2018 197.468 22.2495 197.564 22.2973C197.612 22.345 197.708 22.4405 197.708 22.536C197.804 22.727 197.804 22.9179 197.708 23.1089C197.66 23.2044 197.612 23.2521 197.564 23.3476C197.516 23.3954 197.42 23.4431 197.324 23.4908C197.228 23.5386 197.132 23.5386 197.036 23.5386C196.748 23.5386 196.46 23.3476 196.364 23.1089C196.268 22.9179 196.268 22.727 196.364 22.536C196.46 22.345 196.604 22.2018 196.748 22.154C196.796 22.154 196.892 22.1063 197.036 22.1063ZM197.036 23.3954C197.132 23.3954 197.18 23.3954 197.276 23.3476C197.324 23.2999 197.42 23.2999 197.468 23.2044C197.708 22.9657 197.708 22.6315 197.468 22.3928C197.42 22.345 197.372 22.2973 197.276 22.2495C197.228 22.2018 197.132 22.2018 197.036 22.2018C196.94 22.2018 196.892 22.2018 196.796 22.2495C196.508 22.3928 196.364 22.727 196.508 23.0134C196.556 23.0612 196.556 23.1566 196.604 23.2044C196.652 23.2521 196.7 23.2999 196.796 23.3476C196.844 23.3954 196.94 23.3954 197.036 23.3954ZM197.036 22.4882C197.084 22.4882 197.18 22.4882 197.228 22.536C197.276 22.5837 197.324 22.6315 197.276 22.6792C197.276 22.727 197.276 22.7747 197.228 22.8224C197.18 22.8702 197.132 22.8702 197.084 22.8702L197.324 23.1089H197.132L196.94 22.8702H196.892V23.1089H196.748V22.4405L197.036 22.4882ZM196.892 22.6315V22.8224H197.036C197.084 22.8224 197.084 22.8224 197.132 22.8224L197.18 22.7747C197.18 22.727 197.18 22.727 197.132 22.727C197.084 22.727 197.084 22.727 197.036 22.727H196.892V22.6315ZM184.803 17.4752C184.803 15.47 186.146 13.799 188.305 13.799C190.368 13.799 191.759 15.3745 191.759 17.4752C191.759 19.5759 190.368 21.1514 188.305 21.1514C186.098 21.1037 184.803 19.4804 184.803 17.4752ZM100.417 17.4752V11.746H97.9222V13.1306C97.0587 12.0325 95.7154 11.4118 94.2762 11.4596C91.062 11.4596 88.5193 13.9899 88.5193 17.4752C88.5193 20.9605 91.062 23.4908 94.2762 23.4908C95.6674 23.5386 97.0587 22.9179 97.9222 21.8198V23.2044H100.417V17.4752ZM91.1099 17.4752C91.1099 15.47 92.4532 13.799 94.612 13.799C96.6749 13.799 98.0661 15.3745 98.0661 17.4752C98.0661 19.5759 96.6749 21.1514 94.612 21.1514C92.4052 21.1037 91.1099 19.4804 91.1099 17.4752Z" fill="black"/>
<path d="M36.2279 3.86826H21.1162V30.8909H36.2279V3.86826Z" fill="#FF5F00"/>
<path d="M22.0757 17.3797C22.0757 12.128 24.5224 7.11495 28.6481 3.86841C21.1642 -2.00401 10.3221 -0.714946 4.42136 6.78074C-1.47941 14.2287 -0.18412 25.0187 7.34776 30.8911C13.6323 35.8086 22.4115 35.8086 28.6961 30.8911C24.5224 27.6445 22.0757 22.6315 22.0757 17.3797Z" fill="#EB001B"/>
<path d="M56.6168 17.3797C56.6168 26.8806 48.893 34.5672 39.3462 34.5672C35.4603 34.5672 31.7184 33.2782 28.696 30.891C36.18 25.0186 37.4752 14.2286 31.5745 6.73291C30.7109 5.68256 29.7515 4.67995 28.696 3.86831C36.18 -2.00411 47.07 -0.715037 52.9228 6.78065C55.3215 9.78848 56.6168 13.5125 56.6168 17.3797Z" fill="#F79E1B"/>
<path d="M54.9857 28.0263V27.4534H55.2256V27.3579H54.6499V27.4534H54.8898V28.0263H54.9857ZM56.0891 28.0263V27.3579H55.8972L55.7053 27.8354L55.5134 27.3579H55.3215V28.0263H55.4655V27.5012L55.6574 27.9309H55.8013L55.9932 27.5012V28.0263H56.0891Z" fill="#F79E1B"/>
</g>
<defs>
<clipPath id="clip0_279_994">
<rect width="197.028" height="34.3751" fill="white" transform="translate(0.727295 0.192078)"/>
</clipPath>
</defs>
</svg>